<svg width="15" height="10" viewBox="0 0 15 10" fill="none" xmlns="http://www.w3.org/2000/svg">
<path d="M14.8293 2.29113L11.0838 0.149349C10.9855 0.192489 10.8794 0.215576 10.7719 0.217234C10.629 0.224437 10.4868 0.192994 10.3606 0.12627C10.3039 0.0975968 10.2565 0.0538735 10.2235 0L2.61311 1.17306L2.62339 1.20972C2.63984 1.38147 2.4102 1.52742 2.11201 1.53625H2.00028L0 5.86937C0.0684784 5.88324 0.13438 5.90751 0.195367 5.94133C0.401015 6.05673 0.40787 6.2407 0.225528 6.3629L5.85002 9.57863C5.94289 9.5414 6.04187 9.52139 6.14204 9.51956C6.28483 9.51263 6.42688 9.54381 6.55334 9.60985C6.59187 9.63127 6.6266 9.65879 6.65616 9.69131L10.4949 9.10139C10.6419 8.88414 10.8021 8.67602 10.9748 8.4782C11.4046 6.87068 12.2587 5.37584 13.7236 4.53271C14.1351 4.29533 14.5614 4.08423 15 3.90069C14.8706 3.61357 14.8033 3.30276 14.8026 2.98831L14.8293 2.29113Z" fill="#9FD1FF"/>
</svg>
