<svg width="2" height="2" viewBox="0 0 2 2" fill="none" xmlns="http://www.w3.org/2000/svg">
<path d="M0.84324 0.766385C0.898463 0.801783 0.944521 0.849539 0.977699 0.905791C1.01088 0.962042 1.03024 1.02522 1.03425 1.09024C1.03673 1.11369 1.03297 1.13737 1.02332 1.15892C1.01367 1.18047 0.998468 1.19914 0.979249 1.21305L0.407209 1.54484C0.522184 1.68875 0.663692 1.80973 0.824232 1.90137C1.04325 2.02022 1.23927 2.02715 1.37928 1.94296L1.39128 1.93504L1.40628 1.92613L1.41528 1.9182L1.43028 1.90632L1.43728 1.89939L1.45328 1.88553L1.46028 1.87761C1.46028 1.87166 1.47028 1.86671 1.47428 1.86176L1.48129 1.85285L1.49429 1.83601L1.50129 1.8271C1.50531 1.82138 1.50899 1.81542 1.51228 1.80926C1.51552 1.80535 1.51822 1.80102 1.52029 1.79639C1.52368 1.79099 1.52668 1.78537 1.52929 1.77956C1.53221 1.77561 1.53456 1.77127 1.53629 1.76668L1.5453 1.74786C1.5453 1.74786 1.54529 1.73696 1.55229 1.73201L1.5583 1.71518C1.56119 1.70922 1.56321 1.70288 1.56429 1.69636L1.5703 1.68052C1.5703 1.67062 1.57629 1.65972 1.57829 1.64981V1.64388C1.57829 1.63496 1.57829 1.62605 1.57829 1.61713C1.57876 1.61286 1.57876 1.60854 1.57829 1.60426C1.57829 1.58148 1.58529 1.55771 1.58829 1.53295C1.5878 1.52901 1.5878 1.525 1.58829 1.52106V1.50917C1.58829 1.48342 1.58829 1.45768 1.58829 1.43094C1.56904 1.16109 1.4855 0.899601 1.34452 0.66789C1.20355 0.436179 1.00914 0.240833 0.777232 0.0978742C0.338199 -0.139818 -0.00882949 0.0701434 0.000171195 0.568307C0.00744069 0.747897 0.0484752 0.924568 0.121176 1.08925L0.697221 0.754501L0.84324 0.766385Z" fill="#98BCDD"/>
</svg>
