<svg width="39" height="22" viewBox="0 0 39 22" fill="none" xmlns="http://www.w3.org/2000/svg">
<path d="M24.8892 10.6341L23.6062 8.43441L8.85284 0L0 5.09438L1.59846 6.00867L29.5633 22.0003L38.4154 16.9039L26.1824 9.91009L24.8919 10.6388L24.8892 10.6341ZM32.4638 19.2986L32.3998 19.3357L24.7005 14.9323L24.6023 14.8756L25.005 13.6678L20.5244 14.7595L22.005 12.7009L17.5033 14.2724L23.378 9.45936L21.1888 10.0558L18.0293 10.9175L18.7182 9.72116L14.5789 10.4114L16.4104 7.51L12.6262 8.41687L15.2542 5.22529L14.2846 5.59235L8.0502 7.95399L9.09404 5.62474L5.02908 3.30156L4.96504 3.26513L4.97866 3.25703L4.98615 3.25298L5.02908 3.22802L9.19215 5.60854L8.19465 7.83523L15.4729 5.08021L12.8074 8.31903L15.5901 7.6544L16.5624 7.42228L14.7227 10.3352L18.477 9.70902L18.8565 9.64627L18.1799 10.8203L23.6464 9.32981L17.8249 14.101L22.1924 12.5754L20.6934 14.6671L22.1542 14.3115L25.1256 13.5875L24.6998 14.8648L32.4638 19.2986Z" fill="#8CD5FF"/>
</svg>
