<svg width="5" height="3" viewBox="0 0 5 3" fill="none" xmlns="http://www.w3.org/2000/svg">
<path d="M4.26114 0.419831C3.28175 -0.139944 1.69792 -0.139944 0.724924 0.419831C0.281997 0.674778 0.0421448 1.00178 0.00536744 1.3359C-0.0402045 1.73178 0.204439 2.14349 0.738509 2.44832C1.71711 3.0081 3.29694 3.0081 4.27394 2.44832C4.80401 2.14349 5.04386 1.73574 4.9935 1.3359C4.94792 1.00178 4.70407 0.674778 4.26114 0.419831ZM3.89097 2.2298C3.12664 2.67002 1.88421 2.67002 1.11588 2.2298C0.696942 1.99227 0.505056 1.67003 0.541033 1.35886C0.569816 1.09679 0.759304 0.840259 1.10629 0.639943C1.87062 0.200516 3.11305 0.200516 3.88138 0.639943C4.23156 0.840259 4.42265 1.09679 4.45543 1.35886C4.49141 1.67003 4.30351 1.99069 3.88777 2.2298H3.89097Z" fill="#DDEFF1"/>
</svg>
