<svg width="47" height="34" viewBox="0 0 47 34" fill="none" xmlns="http://www.w3.org/2000/svg">
<path d="M20.7285 24.5528C20.5215 23.6701 20.1616 22.8296 19.6646 22.0688C19.3835 21.6455 19.0473 21.2609 18.6645 20.9249C18.6332 20.8974 18.6013 20.8705 18.5694 20.8442L30.8817 13.8152L30.9781 13.7607L47 4.61964C46.326 3.0284 45.9191 1.45264 45.7771 0L43.5961 1.24406L42.4507 1.89737L26.8487 10.8009L25.7113 11.4495L16.4381 16.7406C16.7131 17.1299 16.863 17.5924 16.8681 18.0674C16.8681 18.0802 16.8681 18.093 16.8681 18.1058V18.1125C16.8681 18.1253 16.8681 18.1374 16.8681 18.1502V18.1542C16.8681 18.1677 16.8681 18.1818 16.8681 18.1953C16.8685 18.2016 16.8685 18.2078 16.8681 18.2141L16.8437 18.8728C16.8437 19.6419 16.4163 20.4102 15.5684 21.0528L15.9489 22.3365L18.0157 21.1577L18.2446 21.0272C20.6226 23.0888 20.2373 25.8857 17.0896 27.699C13.4847 29.774 7.61999 29.774 3.99126 27.699C0.362523 25.624 0.344179 22.2605 3.94845 20.1855C4.1054 20.0954 4.27253 20.0106 4.44918 19.9298C4.41521 19.8673 4.38464 19.8047 4.35678 19.7414C3.92076 19.9219 3.49685 20.1298 3.08764 20.3638C1.63574 21.1995 0.789192 22.681 0.363201 24.2743C0.312925 24.4622 0.267631 24.6506 0.227319 24.8395C0.223922 24.8549 0.221207 24.8697 0.21781 24.8845C0.0907127 25.5176 0.0188806 26.1602 0.0031142 26.8055C-0.0186269 27.7293 0.0642611 28.6349 0.546643 29.4497C1.13773 30.4441 2.07804 31.199 3.07609 31.7696C7.17702 34.1151 13.806 34.1151 17.8811 31.7696C19.0239 31.1116 20.111 30.1911 20.63 28.9572C20.683 28.8316 20.7299 28.7033 20.7707 28.5723C20.9689 27.9039 21.0514 27.2071 21.0146 26.5114C21.0091 26.391 21.0023 26.2699 20.9922 26.1495L20.986 26.0822C20.9383 25.5668 20.8523 25.0556 20.7285 24.5528Z" fill="#03476D"/>
</svg>
