<svg width="22" height="10" viewBox="0 0 22 10" fill="none" xmlns="http://www.w3.org/2000/svg">
<path d="M19.0758 6.9542C14.9551 9.32508 8.25567 9.32508 4.11032 6.9542C3.10146 6.37746 2.15097 5.61437 1.55348 4.60915C1.06518 3.78553 0.981396 2.8701 1.00406 1.93629C1.01827 1.28608 1.08881 0.638269 1.2149 0L0.84679 0.0571316C0.298747 0.887554 0 1.79891 0 2.75583C0 6.62502 4.94475 9.76104 11.0522 9.76104C16.6391 9.76104 21.2576 7.13307 22 3.7216C21.9588 3.85354 21.9114 3.98322 21.8579 4.11063C21.3297 5.35864 20.2309 6.29244 19.0758 6.9542Z" fill="#63B4FF"/>
</svg>
