<svg width="20" height="13" viewBox="0 0 20 13" fill="none" xmlns="http://www.w3.org/2000/svg">
<path d="M14.939 1.32667C14.9392 1.79134 14.802 2.24588 14.5442 2.63414C14.2864 3.0224 13.9194 3.32736 13.4885 3.51134L0 11.2077L2.9149 12.874L10.2565 8.62821C10.3053 7.77782 10.6392 7.17522 11.1536 6.88324H11.1466L11.1557 6.87841C11.1696 6.87082 11.1828 6.86254 11.1968 6.85563L11.203 6.85218L12.2019 6.30826C12.7532 5.99005 13.515 6.03216 14.3584 6.50222C14.8579 6.79253 15.3067 7.16081 15.6876 7.59283L18.8667 5.88789C18.8716 5.56787 18.946 5.25264 19.0848 4.96364C19.0848 4.9236 19.0848 4.88357 19.0848 4.84353C19.08 4.0449 19.3637 3.48235 19.8202 3.22143H19.8153L19.832 3.21245L19.8543 3.20003L19.8752 3.18968L19.8969 3.17863L20 3.12479L14.5341 0C14.7997 0.392321 14.9407 0.854344 14.939 1.32667Z" fill="#9FD1FF"/>
</svg>
