<svg width="14" height="12" viewBox="0 0 14 12" fill="none" xmlns="http://www.w3.org/2000/svg">
<path d="M5.19998 7.63573V6.23068H5.20618C5.20642 6.11995 5.23607 6.01124 5.29217 5.91546C5.34826 5.81968 5.42882 5.74021 5.52575 5.68502L6.07675 5.36718C6.09373 5.27807 6.13006 5.19368 6.18321 5.11984C6.23637 5.046 6.30509 4.98448 6.38461 4.93952L14 0.563387L13.0151 0L0 7.42497C0.50429 8.19622 0.869685 9.04825 1.07994 9.94316C1.20544 10.4517 1.29292 10.9688 1.34166 11.4901L9.03901 10.306L5.60703 8.34644C5.481 8.27508 5.3767 8.17142 5.30508 8.04637C5.23346 7.92132 5.19716 7.77947 5.19998 7.63573Z" fill="#9FD1FF"/>
</svg>
