<svg width="7" height="4" viewBox="0 0 7 4" fill="none" xmlns="http://www.w3.org/2000/svg">
<path d="M0.0416704 0.138726L1.62764 1.04554C1.66739 1.06581 1.71233 1.07388 1.75673 1.06873L2.77031 0.961258L1.80426 2.15537C1.77801 2.18698 1.79007 2.22561 1.84327 2.25511C1.90029 2.27833 1.96427 2.27833 2.0213 2.25511L4.56339 1.19657L2.3114 3.0376C2.27168 3.06991 2.27735 3.11416 2.32771 3.14437C2.35536 3.15834 2.38558 3.16661 2.41655 3.16866C2.44752 3.17071 2.47859 3.16651 2.50787 3.15631L5.68549 2.01839L5.21948 3.04182L5.25779 3.12119L6.75155 3.97533C6.78334 3.99159 6.81861 4.00007 6.85439 4.00007C6.89018 4.00007 6.92545 3.99159 6.95724 3.97533C6.96968 3.97123 6.9805 3.96336 6.98816 3.95283C6.99583 3.94231 6.99996 3.92965 6.99996 3.91667C6.99996 3.90369 6.99583 3.89105 6.98816 3.88052C6.9805 3.86999 6.96968 3.86212 6.95724 3.85803L5.52448 3.0369L6.05786 1.85824C6.07063 1.82944 6.05786 1.79854 6.00254 1.76974C5.95009 1.75078 5.89256 1.75078 5.84011 1.76974L2.95898 2.80089L5.30318 0.883989C5.34432 0.850273 5.33723 0.805321 5.28687 0.776522C5.25785 0.762219 5.2261 0.754136 5.19372 0.752805C5.16133 0.751473 5.12902 0.75692 5.0989 0.768792L2.30643 1.93481L3.15403 0.888907C3.17673 0.86081 3.17035 0.827096 3.12495 0.794785C3.08508 0.77413 3.03979 0.766041 2.99515 0.771604L1.77943 0.900148L0.248074 0.0242313C0.216177 0.00830028 0.18095 0 0.145226 0C0.109502 0 0.0742774 0.00830028 0.0423804 0.0242313C-0.0143628 0.0537329 -0.0136542 0.105712 0.0416704 0.138726Z" fill="#EAF6FC"/>
</svg>
