<svg width="8" height="5" viewBox="0 0 8 5" fill="none" xmlns="http://www.w3.org/2000/svg">
<path d="M7.96113 0.319421C7.97452 0.30973 7.98511 0.29673 7.99183 0.281718C7.99856 0.266706 8.00117 0.250208 7.99944 0.233875C7.99665 0.18858 7.98316 0.144572 7.96005 0.105387C7.93694 0.0662028 7.90486 0.0329365 7.86639 0.00827838L7.77303 0L7.37178 0.233184L0.0389105 4.48776H0.0437833C0.0288821 4.49692 0.0169117 4.51008 0.00926578 4.52572C0.00161989 4.54135 -0.00138702 4.55881 0.000591762 4.57607C0.00327361 4.62139 0.0167245 4.66544 0.039846 4.70464C0.0629674 4.74384 0.0951084 4.77709 0.133653 4.80166L0.227001 4.80994L7.12377 0.808561L7.56126 0.554677L7.96113 0.319421Z" fill="#03476D"/>
</svg>
