<svg width="20" height="23" viewBox="0 0 20 23" fill="none" xmlns="http://www.w3.org/2000/svg">
<path d="M19.6211 3.14094C19.8568 3.01068 20.002 2.72574 19.9999 2.31869C19.9945 1.52018 19.4252 0.554774 18.7271 0.164678C18.3544 -0.0442778 18.0201 -0.0476673 17.7906 0.116512C17.7715 0.130217 17.7532 0.144932 17.7358 0.160603L10.7755 4.1864L10.5542 4.31394L10.0288 4.61856L9.73697 4.78681L4.9237 7.56836C4.64465 7.72982 4.37062 7.90033 4.10162 8.07989C4.02352 8.1319 3.94611 8.18482 3.86939 8.23865C3.71319 8.34787 3.55974 8.46049 3.40765 8.57786L3.21241 8.73051C3.13294 8.79428 3.05461 8.85873 2.97743 8.92386C2.8548 9.0263 2.73492 9.13214 2.61708 9.24001C2.09507 9.71479 1.62858 10.2462 1.2264 10.8241C0.0295938 12.5636 -0.290332 15.314 0.262515 17.337C0.847561 19.4795 2.56502 21.1525 4.40374 22.3167C4.5017 22.3784 4.59966 22.4381 4.69831 22.4978C4.79696 22.5575 4.89904 22.6179 5.00248 22.6763L5.07784 22.7197C5.05494 22.3346 5.10418 21.9486 5.22307 21.5813C5.45315 20.8365 5.95018 20.2008 6.62061 19.7936C6.7114 19.7389 6.80675 19.6919 6.9056 19.6532C6.20639 19.1504 5.58051 18.5546 5.04564 17.8825C3.96872 16.5033 3.51658 15.2088 4.2448 13.6206C4.26467 13.5765 4.28522 13.5324 4.30714 13.4883C4.31742 13.4673 4.32838 13.4463 4.33934 13.4245C5.13401 11.8723 6.54799 10.6884 8.04417 9.82277L9.97811 8.70269L10.1233 8.61856L10.5542 8.36958L10.6995 8.28613C12.467 7.26238 14.9585 5.82072 17.6782 4.24745L17.8242 4.16333L18.1256 3.98897L19.5101 3.18707C19.5487 3.17568 19.5859 3.16021 19.6211 3.14094Z" fill="#ADDCEA"/>
</svg>
