<svg width="28" height="17" viewBox="0 0 28 17" fill="none" xmlns="http://www.w3.org/2000/svg">
<path d="M17.5001 11.2798L16.0125 11.6425L17.5417 9.51592L13.0942 11.0688L19.0224 6.21087L13.4557 7.72803L14.1447 6.53244L13.7582 6.59703L9.93513 7.23468L11.8092 4.2677L10.8191 4.50475L7.98612 5.18157L10.7004 1.88614L3.28881 4.69096L4.3046 2.42347L0.0652255 0L0.0215132 0.0247395L0.0145764 0.0295498L0 0.0371071L0.0652255 0.07421L4.20191 2.43927L3.13894 4.8119L9.48759 2.40836L10.4749 2.03456L7.79878 5.28395L11.6503 4.36389L9.78525 7.31507L14.0003 6.61215L13.2989 7.82972L16.5162 6.95296L18.7455 6.34486L12.7639 11.2468L17.3474 9.64578L15.8397 11.7422L20.4024 10.6311L19.9924 11.8611L20.0923 11.9181L27.9348 16.4022L28 16.3644L20.0923 11.8432L20.5259 10.5432L17.5001 11.2798Z" fill="#EAF6FC"/>
</svg>
