<svg width="11" height="10" viewBox="0 0 11 10" fill="none" xmlns="http://www.w3.org/2000/svg">
<path d="M6.38435 7.38105C6.38435 7.28655 6.38078 7.19063 6.37366 7.09472C6.34838 6.75947 6.29165 6.42728 6.20418 6.10245L9.80546 4.07982L10.8502 3.49306V3.26315L6.15006 5.90569C6.12086 5.81048 6.09023 5.71527 6.05747 5.62006C5.92578 5.24881 5.76457 4.88847 5.57535 4.54245L10.8637 1.56634L10.8744 0L5.68217 2.91758L4.81051 3.40702C4.73574 3.31604 4.66026 3.22718 4.58192 3.14114C4.19253 2.70075 3.73395 2.32544 3.22386 2.02968C2.36217 1.5473 1.58594 1.50639 1.0205 1.83151L0 2.38724H0.00427702L0.0484207 2.36538L0.0591133 2.36044L0.104683 2.33999L0.113237 2.33646L0.16237 2.31671H0.168786L0.221483 2.29838C0.239999 2.29203 0.258518 2.28568 0.277745 2.28075C0.316676 2.26946 0.356551 2.25959 0.39738 2.25113C0.548006 2.22107 0.701819 2.2097 0.855282 2.21728C0.974984 2.22348 1.09403 2.2388 1.21135 2.26312H1.22204C1.2427 2.26805 1.26405 2.27229 1.2847 2.27793H1.29395L1.35877 2.29415L1.38156 2.3005L1.43355 2.31531L1.46488 2.32518L1.50902 2.33928L1.54108 2.34986L1.58594 2.36538L1.61584 2.37596L1.66357 2.39429C1.68137 2.40064 1.69989 2.4084 1.71769 2.41616L1.73976 2.42462L1.80029 2.45071L1.81881 2.45917C1.86439 2.47892 1.90996 2.50078 1.95625 2.52335L1.97904 2.53464C2.03174 2.56073 2.08586 2.58964 2.13927 2.61997C3.87405 3.59249 5.28907 5.98749 5.30117 7.97063C5.30261 8.14677 5.29167 8.32281 5.26842 8.49745C5.26842 8.51931 5.26273 8.54117 5.25917 8.56303C5.25877 8.56843 5.25877 8.57385 5.25917 8.57925C5.25489 8.60605 5.25062 8.63215 5.24493 8.65895C5.24137 8.6801 5.23708 8.70126 5.2321 8.72171C5.2325 8.72688 5.2325 8.73207 5.2321 8.73723L5.21928 8.79365C5.21928 8.8007 5.21928 8.80705 5.21429 8.81339C5.20931 8.81974 5.20646 8.84372 5.20219 8.85924C5.19792 8.87475 5.1972 8.87969 5.19435 8.88885L5.18154 8.93187L5.173 8.9615C5.16944 8.97349 5.16516 8.98548 5.16088 8.99746C5.15661 9.00945 5.15234 9.02144 5.14878 9.03343L5.13811 9.06234C5.13383 9.07574 5.12812 9.08914 5.12385 9.10184C5.11958 9.11453 5.11602 9.12088 5.11246 9.13004C5.1089 9.13921 5.10178 9.15614 5.0968 9.16954C5.09181 9.18294 5.09038 9.18365 5.08682 9.19141L5.0676 9.23442C5.06449 9.24192 5.06091 9.24922 5.05691 9.25629L5.03768 9.29719L5.02772 9.31623L5.00635 9.35784L4.99497 9.37618C4.98784 9.39028 4.98001 9.40368 4.97217 9.41708L4.96148 9.434L4.93657 9.47491L4.92801 9.4869C4.91875 9.50171 4.90879 9.51581 4.89953 9.52921C4.89686 9.53395 4.89375 9.53843 4.89027 9.54261C4.8803 9.55601 4.87104 9.56941 4.86107 9.58211C4.85839 9.58639 4.8553 9.59041 4.85182 9.5941L4.82119 9.63429L4.81194 9.64417C4.80126 9.65686 4.79058 9.67026 4.77918 9.68296C4.76779 9.69565 4.77277 9.6893 4.76992 9.69354L4.73645 9.7295L4.72364 9.7422L4.69302 9.77323C4.68803 9.77817 4.68232 9.7831 4.67805 9.78804L4.64672 9.81625L4.62963 9.83176L4.60044 9.85574L4.57693 9.87478L4.55271 9.89382L4.52423 9.91498L4.50358 9.92979L4.4694 9.95236L4.45373 9.96364L4.41242 9.98903L4.40246 9.99467L4.39319 10.0003L5.47138 9.41214C5.58046 9.3488 5.68117 9.27229 5.77119 9.18435C5.79897 9.15755 5.82602 9.12934 5.85166 9.10043C5.98157 8.95327 6.0871 8.78665 6.16429 8.60676C6.32287 8.21778 6.39782 7.80032 6.38435 7.38105Z" fill="#2788BF"/>
</svg>
