<svg width="28" height="9" viewBox="0 0 28 9" fill="none" xmlns="http://www.w3.org/2000/svg">
<path d="M8.43585 5.91721H8.38391C7.99079 6.11743 7.63417 6.12925 7.3667 5.97978L7.37443 5.98396C6.6289 5.57796 5.88056 5.17752 5.13433 4.7743L3.37932 3.82813C2.92653 3.58342 2.42951 3.37695 2.04201 3.03144C1.1996 2.28131 1.52534 0.910371 2.15363 0.0093894C1.96302 -0.0130958 1.76976 0.00491586 1.58673 0.0622169C1.40371 0.119518 1.23512 0.214794 1.0922 0.341698C0.20206 1.11268 -0.528025 2.97652 0.506728 3.90044C0.894935 4.24804 1.39125 4.45173 1.84404 4.69644L3.59905 5.64331C4.34598 6.04652 5.09432 6.44696 5.83915 6.85296L5.78509 6.81681C6.06027 6.99964 6.44427 6.99756 6.86899 6.77301C13.3274 9.20621 22.0512 8.9031 27.9094 5.85951L28 5.66347C22.2253 8.06122 14.3776 8.14603 8.43585 5.91721Z" fill="#63B4FF"/>
</svg>
