<svg width="4" height="4" viewBox="0 0 4 4" fill="none" xmlns="http://www.w3.org/2000/svg">
<path d="M2.70556 3.87085L2.72219 3.85919L2.73188 3.85302L2.74573 3.84273L2.75751 3.83518C2.7612 3.83123 2.76538 3.82777 2.76997 3.82489L2.78175 3.8146C2.78576 3.81177 2.78948 3.80855 2.79284 3.80499C2.79746 3.80216 2.80165 3.79869 2.8053 3.7947L2.81708 3.78305C2.82109 3.78022 2.82479 3.777 2.82816 3.77344L2.83855 3.76315C2.8434 3.75904 2.84686 3.75424 2.85171 3.75012L2.86003 3.74121L2.87249 3.72679L2.8808 3.71719L2.89397 3.70141L2.8995 3.69456L2.91406 3.67603C2.91551 3.67364 2.91712 3.67135 2.9189 3.66918C2.92391 3.66282 2.92853 3.65618 2.93275 3.64928C2.93482 3.64694 2.93668 3.64441 2.9383 3.64174L2.95215 3.62116C2.95345 3.61919 2.95461 3.61712 2.95561 3.61498C2.96046 3.60744 2.96531 3.60058 2.96946 3.59304C2.97362 3.58549 2.96946 3.58961 2.96946 3.58755C2.97985 3.56972 2.99025 3.55188 2.99925 3.53267V3.52719L3.01241 3.50043L3.02627 3.46956C3.05926 3.3885 3.08408 3.30441 3.10038 3.21851C3.10592 3.1897 3.11007 3.16089 3.11423 3.13139C3.1257 3.04567 3.13103 2.95925 3.13017 2.87278C3.12463 1.8754 2.41256 0.670181 1.53703 0.18178C1.48582 0.152553 1.43311 0.125991 1.3791 0.102207L1.35486 0.0919157L1.33892 0.0843712L1.26966 0.0576179H1.26134L1.2378 0.0493868L1.22256 0.0439022L1.20386 0.0384175L1.18377 0.0322379L1.16507 0.0267533L1.14637 0.0212687L1.12628 0.0164623L1.10896 0.0123509L1.09303 0.00823113C1.08541 0.00823113 1.07848 0.00823549 1.07086 0.00411975H1.0584L1.03485 0H1.02238H0.998136H0.989131H0.961422H0.954497H0.926789H0.916397C0.908085 0 0.899081 0 0.890769 0H0.782717H0.755702H0.746697H0.723149H0.716215C0.707834 0.00092485 0.699511 0.00230279 0.69128 0.00411975H0.683662L0.658727 0.00823113H0.653882L0.62756 0.0144024L0.599159 0.0219469L0.572144 0.030178L0.543742 0.040469L0.515349 0.0521333L0.488334 0.0644758L0.462012 0.0775133C0.220271 0.207159 0.0526427 0.467136 0 0.832065C0.232043 0.632452 0.589463 0.621474 0.990517 0.846467C1.69635 1.24158 2.27264 2.21838 2.27749 3.02369C2.27749 3.49426 2.0877 3.80431 1.78708 3.90172H1.7947C2.07177 4.01216 2.32667 4.02724 2.53724 3.95796C2.58748 3.94171 2.63579 3.92009 2.68131 3.89349C2.68547 3.89349 2.69101 3.888 2.69517 3.88457L2.70556 3.87085Z" fill="#E4EEFA"/>
</svg>
