<svg width="13" height="19" viewBox="0 0 13 19" fill="none" xmlns="http://www.w3.org/2000/svg">
<path d="M7.52679 15.3328C7.14993 15.1125 6.84392 14.9119 6.80425 14.4643C6.80425 14.4468 6.80425 14.4293 6.8 14.4117L6.72208 14.3668C6.61535 14.3065 6.51051 14.245 6.40756 14.1823C6.30555 14.1206 6.20426 14.0589 6.10296 13.995C4.2017 12.7913 2.42582 11.0613 1.82087 8.84598C1.24922 6.75479 1.58003 3.91089 2.81755 2.11153C3.2334 1.51391 3.71576 0.964455 4.25554 0.473516L4.47442 0C3.23619 0.794806 2.10068 1.77831 1.26834 2.98841C0.030824 4.78707 -0.299981 7.63098 0.270964 9.72286C0.87662 11.9382 2.65179 13.6688 4.55376 14.8719C4.65435 14.9351 4.75635 14.9982 4.85836 15.0599C4.96036 15.1216 5.06591 15.1827 5.17216 15.2437L5.25151 15.2893V15.3412C5.29188 15.7895 5.5979 15.9894 5.97475 16.2097L9.78577 18.4356C10.3185 18.747 10.9057 19.0704 11.5192 18.9869C12.049 18.9168 12.4854 18.5492 12.814 18.122C12.2927 18.103 11.794 17.8274 11.3357 17.5608L7.52679 15.3328Z" fill="#63B4FF"/>
</svg>
