<svg width="9" height="7" viewBox="0 0 9 7" fill="none" xmlns="http://www.w3.org/2000/svg">
<path d="M3.40567 0.850627C3.35527 0.779733 3.28881 0.721515 3.2116 0.68064C2.89422 0.498858 2.39188 0.489841 2.05629 0.652195L1.70108 0.448211V0.56061L1.96031 0.708394C1.67236 0.901277 1.68777 1.19407 2.00794 1.37446C2.10381 1.42782 2.20763 1.46576 2.31551 1.48686L0.268331 5.92733L0 6.50806L0.16814 6.41231L0.436479 5.83158L2.43182 1.5049C2.70185 1.5435 2.9773 1.49715 3.2193 1.37238C3.43369 1.24888 3.50865 1.07612 3.4456 0.916541L6.3181 0.474577L9.00005 0.058283L8.89846 0L6.21582 0.416294L3.40567 0.850627Z" fill="#B3DFEF"/>
</svg>
