<svg width="3" height="3" viewBox="0 0 3 3" fill="none" xmlns="http://www.w3.org/2000/svg">
<path d="M0.414289 0.611019L0.546317 0.53271C0.694846 0.444864 0.901818 0.453035 1.13286 0.578333C1.59839 0.830974 1.98278 1.4636 1.99309 1.98999C1.9986 2.25557 1.90783 2.4442 1.75724 2.53477L1.22088 2.85346C1.5537 3.03392 1.85213 3.04209 2.06323 2.91067C2.24271 2.79831 2.3603 2.5838 2.38367 2.28758V2.2794C2.38367 2.2617 2.38367 2.24331 2.38367 2.22492C2.38333 2.2188 2.38333 2.21266 2.38367 2.20654V2.14729C2.37474 1.7176 2.19045 1.2382 1.90989 0.84051C1.71707 0.556817 1.46233 0.319665 1.1645 0.146595C0.9087 0.010401 0.674214 -0.0290938 0.482364 0.0206172L0.464485 0.0253845H0.458298L0.44454 0.0294702L0.435601 0.0328742L0.424605 0.0369599L0.4136 0.0410455H0.406726L0.390911 0.0478577C0.30436 0.0874219 0.229007 0.147538 0.171552 0.222868C0.0580919 0.369277 -0.00516981 0.580376 0.000331266 0.846637V0.850726L0.0835323 0.801008L0.414289 0.611019Z" fill="#E4EEFA"/>
</svg>
