<svg width="3" height="9" viewBox="0 0 3 9" fill="none" xmlns="http://www.w3.org/2000/svg">
<path d="M0.0447514 0.385666L0.0707352 0.379949C0.0989574 0.375614 0.127681 0.375614 0.155903 0.379949L0.17756 0.384237C0.225024 0.393259 0.270956 0.408902 0.313982 0.430699C0.426477 0.504256 0.522556 0.599859 0.596297 0.711612C0.670038 0.823365 0.719872 0.948895 0.742728 1.08046L1.9402 8.99982L2.41515 7.4444L1.39524 0.704472C1.37272 0.572884 1.3231 0.447293 1.24946 0.335511C1.17582 0.223729 1.07975 0.128146 0.967216 0.0547096C0.84451 -0.0089083 0.730463 -0.0167694 0.649622 0.0296931L0 0.406396L0.0245388 0.397103H0.0288738L0.0447514 0.385666Z" fill="#7BA1CE"/>
</svg>
