<svg width="5" height="7" viewBox="0 0 5 7" fill="none" xmlns="http://www.w3.org/2000/svg">
<path d="M0.770052 0.136069L0.747729 0.148501L0.735878 0.154715C0.277652 0.415798 -0.00481989 0.978714 6.22799e-05 1.77785C6.22799e-05 1.81791 6.22799e-05 1.85797 6.22799e-05 1.89803C0.011513 2.15118 0.0465342 2.40274 0.10468 2.64951L2.55552 1.33719L2.76476 1.45668L2.7543 2.99071L3.903 3.66966V4.00119L2.74594 4.65183V4.877L1.72277 5.45165C1.96496 5.68361 2.23505 5.88519 2.52693 6.05187C2.59668 6.09055 2.66642 6.12508 2.72988 6.15616C2.77592 6.17827 2.82195 6.1976 2.86937 6.21625C3.42106 6.44004 3.91556 6.42346 4.28939 6.20935C4.30125 6.20313 4.31241 6.19623 4.32357 6.18932L4.33125 6.18379C4.34278 6.17699 4.35395 6.16961 4.36472 6.16169C4.36753 6.16049 4.37011 6.15886 4.37239 6.15686L4.40447 6.13337L4.41285 6.12785L4.44423 6.10298L4.45191 6.09746C4.46167 6.08848 4.47213 6.08019 4.48119 6.07121L4.48957 6.06499L4.51886 6.03806C4.52105 6.03519 4.52363 6.03263 4.52652 6.03046L4.55303 6.00352C4.55623 6.00071 4.55925 5.99771 4.56209 5.99454C4.57116 5.98487 4.58023 5.9752 4.5886 5.96484L4.59627 5.95724L4.61999 5.92893L4.62974 5.91787L4.65207 5.88886C4.65547 5.88526 4.65852 5.88132 4.66114 5.87712C4.66881 5.86745 4.67647 5.8564 4.68415 5.84604L4.69252 5.83499L4.71205 5.80598C4.71554 5.80115 4.71833 5.79562 4.72251 5.7901C4.72669 5.78457 4.73297 5.77214 4.73925 5.76316L4.75042 5.74451L4.76785 5.71412L4.77691 5.69823C4.78249 5.68787 4.78737 5.67751 4.79295 5.66784L4.80273 5.6485C4.80761 5.63953 4.81179 5.62917 4.81667 5.6195L4.82713 5.59877C4.83131 5.58979 4.83479 5.58013 4.83898 5.57046C4.84312 5.56259 4.84685 5.55452 4.85015 5.54628L4.85921 5.52349L4.87177 5.49241L4.87874 5.47307C4.88362 5.46132 4.8878 5.44958 4.89199 5.43715C4.89617 5.42472 4.89548 5.4261 4.89757 5.41988C4.89966 5.41367 4.90663 5.39364 4.91082 5.38051L4.91501 5.36532C4.91993 5.3515 4.92411 5.33744 4.92756 5.32319C4.92756 5.31628 4.93175 5.31006 4.93314 5.30316L4.9436 5.26379L4.94779 5.24721L4.95826 5.20231C4.95826 5.20231 4.95826 5.19748 4.95826 5.19541C4.96244 5.17745 4.96592 5.1588 4.97011 5.14015C4.97011 5.13601 4.97011 5.13186 4.97011 5.12772C4.9736 5.11045 4.97708 5.09318 4.97987 5.07592C4.97987 5.07592 4.97987 5.07108 4.97987 5.06763C4.98335 5.04967 4.98615 5.03102 4.98894 5.01168C4.98894 5.00339 4.98894 4.99511 4.98894 4.98613C4.98894 4.97715 4.99313 4.9585 4.99383 4.94469C4.99452 4.94057 4.99452 4.93637 4.99383 4.93225C4.99383 4.9143 4.998 4.89565 4.9994 4.877C5.00079 4.85835 4.9994 4.86042 4.9994 4.85213C4.9994 4.84384 4.9994 4.82243 4.9994 4.80724C4.9994 4.79204 4.9994 4.79757 4.9994 4.79342C4.9994 4.7727 4.9994 4.75267 4.9994 4.73264C4.9994 4.68568 4.9994 4.63871 4.9994 4.59036C4.99103 3.00729 3.86116 1.09544 2.47672 0.319792L2.41186 0.284566C2.14868 0.140001 1.86016 0.0462477 1.56165 0.008288C1.52469 0.00414383 1.48843 0.00138139 1.45216 0H1.40055H1.33777C1.32312 0 1.30779 0 1.29314 0H1.28267H1.24083H1.23804L1.19828 0.00483537H1.18503L1.14667 0.0103621H1.13063L1.09715 0.016576L1.07972 0.02072L1.04834 0.0283209L1.0302 0.0331562L0.999517 0.0414442L0.982779 0.0462796C0.972317 0.0497331 0.96254 0.0524933 0.952776 0.0566375C0.946532 0.0580879 0.940455 0.0601728 0.934642 0.0628556L0.909543 0.0725221L0.891408 0.0794316C0.882342 0.0794316 0.872568 0.0863367 0.864198 0.0904809L0.845383 0.0987689L0.819569 0.110514L0.797944 0.121563L0.770052 0.136069Z" fill="#E4EEFA"/>
</svg>
