<svg width="5" height="4" viewBox="0 0 5 4" fill="none" xmlns="http://www.w3.org/2000/svg">
<path d="M0.0903494 0.581403C0.0868134 0.58899 0.0828484 0.596372 0.0784789 0.603521C0.0765539 0.607311 0.0749241 0.611243 0.0735961 0.615277C0.0694076 0.622881 0.0659141 0.631175 0.0617256 0.638779C0.0606507 0.642578 0.0592538 0.646281 0.0575415 0.649843L0.0477673 0.672653C0.0477673 0.676801 0.0477626 0.681645 0.042876 0.686485L0.0344993 0.708603C0.0344993 0.712751 0.0345031 0.717595 0.0296165 0.722435C0.0247299 0.727274 0.0240328 0.738333 0.0219386 0.745937L0.017746 0.759068C0.017746 0.767364 0.0128611 0.775659 0.0107668 0.783955C0.0104408 0.788327 0.0104408 0.792722 0.0107668 0.797094C0.0107668 0.80539 0.00658072 0.813685 0.00448647 0.821981C0.00239222 0.830276 0.00448647 0.830964 0.00448647 0.835804L0.00029388 0.857239C0.00029388 0.864152 0.00029388 0.869684 0.00029388 0.875906C-9.796e-05 0.882352 -9.796e-05 0.888818 0.00029388 0.895265C0.00029388 0.902178 0.00029388 0.908395 0.00029388 0.915999C-9.13857e-05 0.922907 -9.13857e-05 0.929834 0.00029388 0.936742C-5.25756e-05 0.942959 -5.25756e-05 0.949192 0.00029388 0.955409V0.97822C0.00029388 0.984441 0.00029388 0.990665 0.00029388 0.996887C0.00029388 1.00311 0.00029388 1.01002 0.00029388 1.01625C0.00029388 1.02247 0.00029388 1.03145 0.00029388 1.03975V1.05565C-5.58593e-05 1.06209 -5.58593e-05 1.06856 0.00029388 1.07501C0.000599503 1.07707 0.000599503 1.07916 0.00029388 1.08123C-5.39977e-05 1.08744 -5.39977e-05 1.09368 0.00029388 1.09989C0.00029388 1.10819 0.00029388 1.11579 0.00029388 1.12409C0.00029388 1.13238 0.00029388 1.13792 0.00029388 1.14483C0.00029388 1.15174 0.00029388 1.16004 0.00029388 1.16833C0.00029388 1.17663 0.00029388 1.1787 0.00029388 1.18423C0.00029388 1.18976 0.00029388 1.2029 0.00029388 1.21258C0.000917182 1.21717 0.000917182 1.22181 0.00029388 1.2264L0.00448647 1.25613C0.00448647 1.26304 0.00448647 1.26926 0.00448647 1.27617L0.00867055 1.30176C0.00834659 1.30683 0.00834659 1.3119 0.00867055 1.31697C0.0100242 1.32724 0.01213 1.33741 0.0149594 1.34738C0.0146301 1.35314 0.0146301 1.35891 0.0149594 1.36467L0.0212398 1.39301C0.0212398 1.39923 0.0247265 1.40546 0.0261226 1.41168C0.0275188 1.4179 0.0310082 1.43104 0.0338005 1.44003C0.0365929 1.44901 0.0338005 1.44901 0.0338005 1.45316C0.0338005 1.4573 0.040085 1.47528 0.0442735 1.48703C0.048462 1.49878 0.0442776 1.49601 0.0484661 1.50085L0.0589391 1.53474V1.54303C0.0631276 1.55547 0.0680101 1.56861 0.0721986 1.58174L0.0784789 1.59764C0.0889502 1.6246 0.0994279 1.65157 0.111295 1.67922C0.111295 1.68544 0.117578 1.69236 0.120371 1.69927C0.123163 1.70618 0.128045 1.71793 0.132932 1.72761L0.142007 1.74697C0.16993 1.80642 0.201342 1.86656 0.236247 1.9274C0.855447 3.00309 2.36611 3.87762 3.60939 3.88107C3.70081 3.88131 3.79217 3.87646 3.88304 3.86656C3.91794 3.86241 3.95285 3.85756 3.98496 3.85203C4.03313 3.84374 4.0799 3.83476 4.12458 3.8237C4.12686 3.82304 4.12928 3.82304 4.13156 3.8237L4.17204 3.81263H4.17763L4.21323 3.80157H4.223L4.25791 3.78982H4.26698L4.30049 3.77807H4.31026L4.33609 3.767L4.35215 3.76078L4.37868 3.74903L4.39194 3.7435L4.41567 3.73244L4.43244 3.72414L4.45476 3.71239L4.46944 3.70478L4.49176 3.69234L4.50712 3.68405L4.52737 3.67091L4.54202 3.66261L4.56297 3.6481L4.57623 3.63911L4.59438 3.62666L4.60975 3.61561L4.62789 3.60178L4.64116 3.59141L4.65931 3.5762L4.67187 3.56583L4.69003 3.54993L4.70049 3.53956L4.71934 3.52159L4.72842 3.5126L4.74657 3.49324L4.75494 3.48426L4.7717 3.46559L4.78078 3.45522L4.79544 3.43724C4.79806 3.43304 4.8011 3.42911 4.8045 3.42549L4.81848 3.40614L4.82685 3.39438C4.83173 3.38747 4.83732 3.38056 4.8415 3.37365L4.84709 3.36535C4.85128 3.35775 4.85686 3.34945 4.86105 3.34116C5.07397 2.98858 5.04953 2.49774 4.73609 1.95298C4.11689 0.877977 2.60624 0.00276528 1.36226 0C0.743056 0 0.306757 0.212926 0.100822 0.561352C0.0959358 0.568265 0.0924409 0.575874 0.0875544 0.583479C0.0884726 0.582771 0.0894063 0.582077 0.0903494 0.581403ZM3.52632 3.67851L3.47326 3.664L3.46698 3.66815L1.44254 0.142416L1.45789 0.13412L1.46837 0.0960945L1.5312 0.113378L3.54517 3.61837L3.52632 3.67851Z" fill="#E4EEFA"/>
</svg>
