<svg width="12" height="9" viewBox="0 0 12 9" fill="none" xmlns="http://www.w3.org/2000/svg">
<path d="M11.4488 2.93421C11.4432 1.92315 10.7214 0.702088 9.83384 0.20699C9.65368 0.100513 9.45344 0.0316573 9.24542 0.00464537H9.21733C9.04181 -0.0136868 8.86488 0.0225228 8.71108 0.108254L7.31728 0.914177L0 5.14616L0.0133413 5.13851L0.0231684 5.13295L0.0393211 5.1246L0.0519553 5.11904L0.0667067 5.11139L0.0800437 5.10583L0.0954893 5.10027L0.110241 5.094L0.122875 5.08914L0.139726 5.08288L0.154477 5.07871L0.169923 5.07384L0.187477 5.06897H0.20012L0.218368 5.0648H0.231714C0.237889 5.06297 0.244247 5.06181 0.250674 5.06132H0.263308H0.282268C0.286924 5.06065 0.29166 5.06065 0.296316 5.06132H0.315971H0.329316H0.347573H0.37987H0.397424H0.467641H0.492918H0.502749H0.528026H0.539263H0.563135H0.575777L0.60246 5.06619H0.612291L0.644588 5.07176H0.648797L0.680399 5.0794H0.687419C0.711293 5.08497 0.735869 5.09192 0.757636 5.09888C0.813606 5.11582 0.868677 5.13555 0.922643 5.15798C0.989651 5.18669 1.05505 5.21896 1.11855 5.25464C2.00328 5.75043 2.7244 6.97149 2.73353 7.98254C2.73353 8.00619 2.73353 8.02913 2.73353 8.05208C2.73353 8.06042 2.73353 8.06807 2.73353 8.07642V8.0945V8.12162C2.73353 8.12787 2.73353 8.13413 2.73353 8.14039C2.73353 8.14665 2.73353 8.15778 2.73353 8.16612V8.17446C2.72692 8.24223 2.71636 8.30956 2.70193 8.37612C2.70193 8.38864 2.69562 8.40184 2.69281 8.41367V8.42271C2.69281 8.43244 2.68789 8.44287 2.68438 8.45261C2.68471 8.45375 2.68471 8.45495 2.68438 8.45608C2.68438 8.46721 2.67736 8.47834 2.67455 8.48947V8.49433C2.66416 8.52863 2.65173 8.5623 2.63734 8.59515C2.63312 8.60558 2.62891 8.61602 2.62399 8.62645C2.61486 8.64662 2.60434 8.66748 2.5938 8.68695C2.58819 8.69668 2.58257 8.70642 2.57765 8.71616L2.5608 8.74396L2.54394 8.76899C2.53833 8.77734 2.53201 8.78639 2.52569 8.79404V8.7989L2.50883 8.82046L2.48988 8.84271L2.47092 8.86357L2.466 8.86844L2.44845 8.88652L2.44284 8.89068L2.42528 8.90807C2.42262 8.90978 2.42026 8.91189 2.41826 8.91433L2.40141 8.92824L2.39228 8.93519L2.37684 8.94771L2.3663 8.95536L2.35155 8.96648L2.34032 8.97344L2.32487 8.98387L2.31364 8.99012L2.29889 8.99986L11.01 3.96195C11.267 3.81453 11.4355 3.51901 11.4706 3.10318C11.4467 3.05381 11.4495 2.99262 11.4488 2.93421Z" fill="#2788BF"/>
</svg>
