<svg width="12" height="10" viewBox="0 0 12 10" fill="none" xmlns="http://www.w3.org/2000/svg">
<path d="M6.55831 6.24436L6.53565 2.21462V2.20738L6.54004 2.11764V2.09086L6.54954 2.01849V2.00835V1.99243C6.56098 1.93124 6.5771 1.87099 6.59778 1.81222L6.60655 1.78689L6.63285 1.72176L6.64455 1.6957L6.6577 1.66748L6.68474 1.61392V1.60958L6.70374 1.57774L6.73444 1.5249L6.74978 1.50174L6.79216 1.4395V1.43444L6.80606 1.41634L6.86671 1.3389L6.91202 1.28824L6.93687 1.26074L6.95806 1.23831L6.96245 1.23469L7.00849 1.18837L6.31641 0L0 3.64616L11.1135 10.0005L11.8962 9.55036L9.97486 6.24436H6.55831Z" fill="#E4EEFA"/>
</svg>
