<svg width="11" height="5" viewBox="0 0 11 5" fill="none" xmlns="http://www.w3.org/2000/svg">
<path d="M1.63474 4.0675C3.80092 5.30558 7.29574 5.31098 9.45852 4.08236C8.49342 3.20901 8.66802 2.03375 9.9871 1.27456L10.8056 0.801747C10.6255 0.503447 10.3947 0.238157 10.1235 0.017558C9.9248 0.18086 9.71236 0.327063 9.48853 0.45457C7.3278 1.69806 3.8132 1.69806 1.63815 0.45457C1.40478 0.322586 1.18362 0.170475 0.977244 0C0.0135102 0.799046 -0.236801 1.796 0.223582 2.70176C0.367904 2.86465 0.491377 3.04455 0.591205 3.23738C0.890141 3.5695 1.2428 3.85004 1.63474 4.0675Z" fill="#63B4FF"/>
</svg>
