<svg width="22" height="10" viewBox="0 0 22 10" fill="none" xmlns="http://www.w3.org/2000/svg">
<path d="M21.7802 0.208405C21.7802 0.213142 21.7802 0.217876 21.7802 0.223289C21.7802 0.242912 21.7802 0.262535 21.7802 0.282834C21.7802 0.28757 21.7802 0.292981 21.7802 0.297718L21.7761 0.356585C21.7758 0.362219 21.7758 0.367867 21.7761 0.373501L21.7699 0.429663C21.7699 0.436429 21.7699 0.443198 21.7699 0.449288C21.7699 0.467557 21.7652 0.485826 21.7631 0.504095C21.7631 0.510862 21.7631 0.518305 21.7631 0.525071C21.7631 0.531837 21.759 0.559577 21.7563 0.577169C21.7536 0.594762 21.7563 0.592734 21.7563 0.600177L21.7481 0.652279L21.744 0.673254C21.744 0.690847 21.7378 0.709115 21.7344 0.726707C21.7344 0.733474 21.7344 0.740239 21.7344 0.747006C21.731 0.765275 21.7269 0.783543 21.7235 0.801136L21.7194 0.821438L21.7071 0.874214C21.7071 0.881657 21.7071 0.889101 21.7023 0.896544C21.6975 0.903987 21.6941 0.93105 21.6893 0.948642C21.6845 0.966235 21.6893 0.962852 21.6839 0.970295C21.6784 0.977738 21.675 1.0048 21.6702 1.0224L21.664 1.04405L21.6497 1.09548C21.6497 1.10359 21.6442 1.11239 21.6422 1.12051C21.6401 1.12863 21.6319 1.15231 21.6271 1.16855C21.6224 1.18479 21.6224 1.18547 21.6189 1.19359C21.6155 1.20171 21.6087 1.22607 21.6032 1.24298L21.595 1.26666L21.578 1.31606C21.578 1.32418 21.5718 1.3323 21.5684 1.33974C21.565 1.34718 21.5575 1.37222 21.5506 1.38846L21.5404 1.4162L21.5226 1.46086L21.511 1.4886C21.5048 1.50416 21.4987 1.51973 21.4919 1.53529L21.4816 1.55965C21.4741 1.57521 21.468 1.59077 21.4611 1.60701C21.4543 1.62325 21.4522 1.62596 21.4475 1.63611C21.4427 1.64626 21.4345 1.66453 21.4283 1.67874C21.4222 1.69295 21.4188 1.69768 21.4147 1.70715C21.4106 1.71663 21.4003 1.7376 21.3921 1.75249C21.3839 1.76737 21.3846 1.76873 21.3805 1.77685L21.3566 1.82421L21.3429 1.84992C21.3347 1.86549 21.3272 1.88105 21.3183 1.89593L21.304 1.92368L21.2794 1.96766L21.2643 1.99472C21.2555 2.00961 21.2473 2.0245 21.2377 2.03938C21.2281 2.05427 21.2274 2.05833 21.222 2.0678L21.1967 2.10975L21.1769 2.14088C21.1687 2.15441 21.1612 2.16727 21.1523 2.1808C21.1434 2.19433 21.1393 2.20178 21.1318 2.2126C21.1243 2.22343 21.1161 2.23831 21.1072 2.25117L21.0867 2.28229L21.0607 2.32086L21.0389 2.35199C21.03 2.36552 21.0211 2.37838 21.0115 2.39123L20.991 2.42033L20.9617 2.46161C20.9541 2.47175 20.9473 2.48055 20.9405 2.4907L20.9097 2.5313L20.8858 2.56242L20.8571 2.59964L20.8325 2.63076L20.8018 2.67001L20.7785 2.69775L20.7457 2.73902C20.7369 2.7485 20.7287 2.75797 20.7205 2.76812L20.6877 2.80669C20.6788 2.81751 20.6699 2.82767 20.6603 2.83782L20.6282 2.87503C20.624 2.87922 20.6201 2.88375 20.6166 2.88856C20.6098 2.89533 20.6036 2.90277 20.5968 2.91022L20.5688 2.94134L20.536 2.97652L20.5046 3.01036C20.495 3.02118 20.4847 3.03133 20.4745 3.04216L20.4403 3.07734C20.4301 3.08885 20.4185 3.10035 20.4075 3.11117L20.3754 3.14365C20.3645 3.15516 20.3529 3.16666 20.3413 3.17748C20.3296 3.18831 20.3194 3.19982 20.3078 3.21064C20.2962 3.22147 20.2846 3.23365 20.2723 3.24447L20.2395 3.27627L20.2067 3.3074L20.1677 3.34326L20.1397 3.36897L20.0967 3.40822L20.0632 3.43731L20.0235 3.4725L19.9894 3.50227L19.9484 3.53746L19.9074 3.57129L19.8732 3.60038L19.8172 3.6464L19.796 3.66331L19.7393 3.70797L19.7154 3.72692L19.6669 3.76481L19.6334 3.79052L19.5924 3.82164L19.55 3.85277L19.5125 3.88119L19.466 3.91502L19.4195 3.94817L19.3806 3.97592L19.3396 4.00501L19.2925 4.03749L19.2521 4.06456L19.2043 4.09704L19.136 4.14034L19.1114 4.15658L19.0431 4.20191L19.0219 4.21612L18.9775 4.24386C18.9296 4.27431 18.8811 4.30409 18.8319 4.33386L18.8101 4.34671C18.7534 4.38122 18.696 4.41438 18.6372 4.44821C14.401 6.8841 7.50833 6.8841 3.24275 4.44821C3.10884 4.37198 2.97902 4.29371 2.8533 4.21341C2.82255 4.19447 2.79249 4.17485 2.76242 4.15523L2.75149 4.14778L2.67087 4.095L2.6613 4.08892C2.60391 4.05035 2.5472 4.01178 2.49254 3.97253C2.48703 3.96932 2.48178 3.9657 2.47682 3.96171C2.42307 3.92382 2.37046 3.88593 2.31899 3.84803L2.31148 3.84262C2.2575 3.8027 2.20489 3.76278 2.15228 3.7215L2.14271 3.71473L2.07438 3.6579L2.06414 3.64978L1.99581 3.59362L1.99103 3.58956L1.91792 3.52866L1.84276 3.46099L1.83456 3.45423L1.76623 3.39604L1.7553 3.38657L1.69244 3.32973L1.68493 3.32296L1.62207 3.2641L1.60909 3.25192L1.55237 3.19779L1.53803 3.18358L1.48337 3.13012C1.47927 3.12606 1.47585 3.122 1.47175 3.11862L1.41709 3.06313L1.40411 3.04893C1.38634 3.03066 1.36858 3.01306 1.3515 2.9948L1.33988 2.98194C1.3228 2.96435 1.3064 2.94607 1.28932 2.9278L1.27019 2.90683L1.22715 2.85947L1.21075 2.84052L1.16565 2.7891C1.16565 2.78436 1.15814 2.7803 1.15404 2.77556C1.13832 2.75729 1.12329 2.73902 1.10758 2.72143C1.10279 2.71534 1.09733 2.70925 1.09254 2.70249L1.05018 2.65106L1.03652 2.63415L0.994838 2.58204C0.989219 2.57534 0.983975 2.56834 0.979124 2.56107L0.940862 2.51235L0.925828 2.49205L0.887566 2.44063L0.875268 2.42371L0.837006 2.37093L0.82334 2.35064L0.787809 2.29989L0.772779 2.27756L0.740664 2.23019L0.723583 2.20381L0.694203 2.15847C0.688737 2.14967 0.683955 2.14088 0.677806 2.13208L0.649794 2.08675C0.644328 2.07795 0.639542 2.06915 0.634076 2.06103L0.606748 2.01435L0.591031 1.98864C0.582148 1.97307 0.57327 1.95751 0.565071 1.94195C0.556872 1.92639 0.55482 1.92503 0.550037 1.91624L0.525441 1.8709C0.519975 1.86143 0.515873 1.85195 0.510407 1.84248L0.486495 1.79715C0.481712 1.78835 0.477611 1.77955 0.472829 1.77143L0.4496 1.72542C0.444817 1.71595 0.440717 1.7058 0.435934 1.69701C0.431151 1.68821 0.421585 1.66655 0.414069 1.65167L0.401771 1.62461C0.394939 1.60904 0.387423 1.59348 0.380591 1.57859C0.373758 1.56371 0.372391 1.55965 0.367609 1.55017C0.362826 1.5407 0.355308 1.5204 0.348475 1.50552L0.336177 1.4771L0.317728 1.43176C0.317728 1.42567 0.312946 1.41891 0.310213 1.41282C0.310398 1.40966 0.310398 1.4065 0.310213 1.40334L0.291768 1.35801C0.288352 1.34854 0.284933 1.33839 0.280834 1.32892C0.276734 1.31944 0.269903 1.29982 0.26512 1.28561C0.260337 1.2714 0.257605 1.26395 0.253506 1.25313L0.239156 1.2105L0.228905 1.18073L0.21456 1.13607C0.211143 1.1266 0.20841 1.11645 0.205677 1.10698L0.191327 1.06097C0.191327 1.05217 0.185862 1.0427 0.183812 1.0339C0.181762 1.0251 0.174929 1.00277 0.170146 0.987211C0.165363 0.971648 0.165364 0.966915 0.162631 0.956765C0.159898 0.946616 0.155113 0.928346 0.151697 0.914137C0.148281 0.899928 0.145547 0.891807 0.142814 0.879628C0.140081 0.867448 0.135985 0.853237 0.133252 0.839705C0.130519 0.826172 0.128469 0.816699 0.125053 0.805873L0.116854 0.765276C0.116854 0.753097 0.111385 0.741592 0.109335 0.729412C0.107286 0.717233 0.104554 0.7037 0.101821 0.690844C0.0990875 0.677988 0.0977227 0.667164 0.0949896 0.655661C0.0922566 0.644158 0.0908876 0.628594 0.0881546 0.615738C0.0854215 0.602882 0.0847413 0.592058 0.0826915 0.579878L0.0765404 0.540632L0.0717571 0.5068C0.0717571 0.492591 0.0676564 0.478382 0.0662899 0.464849C0.0649233 0.451316 0.06629 0.443198 0.0621905 0.432372C0.0580909 0.421546 0.0587737 0.403952 0.0574072 0.389066C0.0560407 0.37418 0.0574072 0.368766 0.0574072 0.357939C0.0574072 0.347113 0.0574073 0.328847 0.0533078 0.313961V0.282834C0.0533078 0.267948 0.0533078 0.253737 0.0533078 0.239528C0.0533078 0.225319 0.0533078 0.217876 0.0533078 0.206373C0.0533078 0.194871 0.0533078 0.178632 0.0533078 0.164422C0.0533078 0.150213 0.0533078 0.141417 0.0533078 0.13059C0.0533078 0.119764 0.0533078 0.1042 0.0533078 0.090667C0.0533078 0.0771343 0.0533078 0.0669869 0.0533078 0.0548074V0L0.0280276 1.75926L1.59326e-05 3.72489C-0.00476687 5.33325 1.06726 6.94433 3.21132 8.17107C6.09057 9.81732 10.1669 10.3525 13.8155 9.77605C13.8927 9.76319 13.9692 9.75101 14.0457 9.73748C15.717 9.45126 17.2892 8.92552 18.6058 8.17107C18.9995 7.94645 19.3754 7.69266 19.7304 7.41188C19.7933 7.36181 19.8548 7.31174 19.9142 7.26099C21.0355 6.31032 21.6476 5.22228 21.7529 4.11937C21.7631 4.0084 21.7693 3.89743 21.7693 3.78646V3.75398L21.7727 3.53272L21.8212 0.137355C21.8212 0.137355 21.8212 0.141416 21.8212 0.142769C21.7816 0.169158 21.7809 0.189459 21.7802 0.208405Z" fill="#2788BF"/>
</svg>
