<svg width="5" height="7" viewBox="0 0 5 7" fill="none" xmlns="http://www.w3.org/2000/svg">
<path d="M4.54684 3.01073C4.40596 2.6904 4.23939 2.38177 4.04871 2.0878C3.57375 1.35597 2.95668 0.727842 2.28351 0.350077C1.54527 -0.0632415 0.879589 -0.0980542 0.397154 0.179714L0.203443 0.281191L0.110697 0.330081L0 0.387855L0.0276651 0.375264L0.0478615 0.366375C0.0568371 0.361931 0.0673005 0.358225 0.077024 0.354521L0.0964717 0.347116L0.123406 0.336745C0.129641 0.333868 0.136158 0.331637 0.142854 0.330081C0.153326 0.325637 0.163792 0.322672 0.175011 0.318969L0.192962 0.313783L0.225868 0.304895L0.245315 0.299709L0.278988 0.291562L0.297687 0.287118L0.333588 0.28045H0.35079L0.391931 0.274528H0.406138L0.448777 0.269342H0.460738H0.505605H0.516835C0.532542 0.269342 0.548989 0.269342 0.564696 0.269342H0.632024H0.687372C0.726266 0.269342 0.762155 0.273786 0.804789 0.27823C1.12491 0.318939 1.43433 0.419482 1.71657 0.574516L1.78612 0.612293C3.27083 1.44412 4.48252 3.49441 4.4915 5.19213C4.4915 5.24398 4.4915 5.29435 4.4915 5.34472C4.4915 5.3662 4.4915 5.38768 4.4915 5.4099C4.4915 5.41434 4.4915 5.41953 4.4915 5.42472C4.4915 5.4299 4.4915 5.45657 4.4915 5.47286C4.4915 5.48916 4.4915 5.49064 4.4915 5.49953C4.4915 5.50842 4.49151 5.53953 4.48552 5.55878C4.48626 5.5632 4.48626 5.5677 4.48552 5.57212C4.48552 5.58693 4.48552 5.60175 4.48028 5.61656C4.47505 5.63138 4.48028 5.63508 4.48028 5.64397C4.48028 5.66471 4.47429 5.68471 4.47055 5.70397C4.47055 5.70397 4.47055 5.70989 4.47055 5.71285C4.47055 5.73211 4.46383 5.74989 4.46009 5.76841C4.46009 5.77285 4.46009 5.7773 4.46009 5.78174C4.4556 5.80174 4.45187 5.82174 4.44738 5.841C4.44738 5.841 4.44738 5.84618 4.44738 5.84841L4.43615 5.89655L4.43167 5.91433L4.42044 5.95655C4.42044 5.96396 4.4167 5.97062 4.41445 5.97803C4.41076 5.99331 4.40627 6.00839 4.40099 6.02321L4.3965 6.03951C4.39201 6.05358 4.38678 6.06766 4.3823 6.08173C4.37781 6.0958 4.38229 6.09432 4.37631 6.10025C4.37032 6.10617 4.36734 6.12617 4.3621 6.13877L4.35463 6.1595L4.34115 6.19284L4.33144 6.21728C4.3279 6.22612 4.32392 6.23477 4.31948 6.2432C4.31499 6.25357 4.31124 6.26395 4.30675 6.27358L4.29554 6.2958C4.2903 6.30617 4.28582 6.31728 4.28058 6.32691L4.2701 6.34765C4.26412 6.35802 4.25888 6.36913 4.2529 6.38024L4.24319 6.39727L4.22449 6.42987L4.21251 6.44987C4.20578 6.4595 4.20054 6.46913 4.19456 6.47876C4.18857 6.48839 4.18708 6.49061 4.18334 6.49579L4.1624 6.5269L4.15342 6.53875C4.14519 6.54986 4.13697 6.56171 4.12874 6.57208C4.12593 6.57659 4.12266 6.58081 4.11901 6.58468L4.09509 6.61579L4.08461 6.62764L4.05917 6.65801L4.05095 6.66615C4.04198 6.67726 4.03225 6.68763 4.02252 6.698C4.01947 6.7014 4.01623 6.70461 4.01281 6.70763L3.98438 6.73652C3.98127 6.73885 3.97851 6.74159 3.97616 6.74467L3.94475 6.77356L3.93576 6.78022C3.92604 6.78985 3.91483 6.79874 3.90436 6.80837L3.89612 6.8143L3.86247 6.84096L3.85348 6.84689L3.81908 6.87208C3.81675 6.87438 3.81395 6.87615 3.81086 6.87726C3.7993 6.88575 3.78732 6.89366 3.77496 6.90096L3.76672 6.90689C3.75476 6.91429 3.74279 6.9217 3.73008 6.92837L4.21475 6.6743C4.45142 6.53376 4.64147 6.3278 4.76152 6.08173C4.9308 5.72393 5.01205 5.33149 4.99862 4.93659C4.97875 4.27128 4.82517 3.61657 4.54684 3.01073Z" fill="#2788BF"/>
</svg>
