<svg width="9" height="6" viewBox="0 0 9 6" fill="none" xmlns="http://www.w3.org/2000/svg">
<path d="M0.653701 0.0294708L0 0.407821L0.0370437 0.393435L0.053748 0.386963C0.0889954 0.380044 0.12527 0.380044 0.160517 0.386963L0.185946 0.392715L0.201196 0.396315C0.240425 0.406202 0.278075 0.421454 0.313054 0.441631L7.91051 4.78618C8.07359 4.88953 8.20043 5.04026 8.27367 5.21776C8.32043 5.31919 8.34518 5.42922 8.34631 5.54072L8.33759 5.63711L8.32669 5.67163L8.31144 5.71623L8.29473 5.74141L8.27149 5.77881L8.25188 5.79463C8.24687 5.7991 8.24153 5.80319 8.2359 5.80686L8.21847 5.82125L8.87217 5.44362C8.95134 5.39758 9.00001 5.29976 9.00001 5.16309C8.99258 5.0123 8.94922 4.86539 8.87347 4.73437C8.79773 4.60336 8.69176 4.49195 8.56421 4.40927L5.76709 2.81027L5.75112 2.80092L0.966755 0.0675956C0.844004 -0.0100884 0.731418 -0.0180028 0.653701 0.0294708Z" fill="#7BA1CE"/>
</svg>
