<svg width="19" height="10" viewBox="0 0 19 10" fill="none" xmlns="http://www.w3.org/2000/svg">
<path d="M16.0119 7.84292C12.4385 9.89908 6.62648 9.89908 3.02942 7.84292C-0.567635 5.78677 -0.586452 2.45234 2.98691 0.395497C3.11306 0.323024 3.24618 0.254002 3.38557 0.188432C3.34468 0.126312 3.30705 0.0634999 3.27266 0C3.09145 0.0828259 2.92 0.169792 2.759 0.262281C-0.934938 2.39091 -0.918908 5.84199 2.80291 7.96992C6.52472 10.0979 12.5416 10.0985 16.2398 7.96992C19.4716 6.10979 19.864 3.24056 17.4246 1.12574L17.1897 1.25964C19.5099 3.29854 19.1203 6.05388 16.0119 7.84292Z" fill="#035B8C"/>
</svg>
