<svg width="17" height="10" viewBox="0 0 17 10" fill="none" xmlns="http://www.w3.org/2000/svg">
<path d="M16.6582 3.60545C16.6492 3.51365 16.7108 3.43076 16.8132 3.36979L11.1408 0.127419C11.0239 0.178684 10.897 0.203619 10.7693 0.20042C10.6415 0.197221 10.5161 0.165972 10.402 0.108926C10.3532 0.0820079 10.3109 0.0448269 10.2781 0L2.69371 1.16939C2.71723 1.36806 2.48618 1.51192 2.18388 1.52425C2.13159 1.5256 2.07927 1.52239 2.02754 1.51466L0 5.90998C0.0868498 5.92209 0.17076 5.94972 0.247651 5.9915C0.288876 6.0106 0.324854 6.03925 0.352546 6.07502C0.380238 6.11079 0.398832 6.15263 0.406754 6.19702C0.415747 6.2895 0.352105 6.37445 0.246266 6.43542L5.84121 9.63463C5.96031 9.55305 6.10177 9.50954 6.24658 9.50995C6.3907 9.50261 6.53414 9.5341 6.66163 9.60106C6.72745 9.63465 6.77969 9.68952 6.80967 9.75657L14.3858 8.59197L14.3651 8.52347C14.3485 8.35083 14.5802 8.20286 14.8818 8.19395L15.0091 8.20012L17 3.88427C16.9366 3.86986 16.8756 3.8468 16.8187 3.81576C16.7767 3.79624 16.7402 3.76689 16.7122 3.73025C16.6843 3.69361 16.6657 3.65077 16.6582 3.60545Z" fill="#9FD1FF"/>
</svg>
