<svg width="5" height="4" viewBox="0 0 5 4" fill="none" xmlns="http://www.w3.org/2000/svg">
<path d="M1.02321 3.61314C1.02321 3.63336 1.02321 3.65283 1.02321 3.6723V3.68129C1.02284 3.68428 1.02284 3.68729 1.02321 3.69028C1.02321 3.709 1.01868 3.72697 1.01565 3.7442C1.016 3.74744 1.016 3.7507 1.01565 3.75394C1.01565 3.76068 1.01565 3.76742 1.01565 3.77416V3.77865C1.01565 3.78614 1.01565 3.79438 1.0096 3.80187L1.00506 3.81385C1.00425 3.81879 1.00271 3.82357 1.00052 3.82808L0.99599 3.84081C0.99599 3.84081 0.995985 3.84904 0.990691 3.85279C0.985397 3.85653 0.9854 3.86253 0.983888 3.86702C0.982581 3.87049 0.980804 3.87377 0.978598 3.87676C0.976626 3.88115 0.974346 3.8854 0.971785 3.88949C0.970218 3.89299 0.968187 3.89626 0.965738 3.89922C0.963243 3.90388 0.960466 3.90838 0.957421 3.91271L0.952131 3.91945L0.942299 3.93218L0.937 3.93892C0.937 3.93892 0.929437 3.94641 0.926411 3.9509L0.921122 3.95689L0.909019 3.96738L0.903729 3.97263L0.892384 3.98161L0.88558 3.9876L0.874234 3.99434L0.86516 4.00034L2.76714 3.40119L2.81629 3.36674L4.07848 2.61781L4.66836 2.26732C4.83398 2.16921 4.93381 1.96175 4.92776 1.66818C4.91641 1.08851 4.49366 0.394997 3.98168 0.115647C3.72758 -0.0221557 3.49994 -0.0341373 3.33659 0.06547L3.1914 0.151598L2.83066 0.36579L2.73915 0.420461L2.36102 0.645139L1.89895 0.919249L1.55108 1.1252L1.43235 1.2001L0 2.57737C0.106632 2.51446 0.254104 2.52045 0.418968 2.60957C0.592058 2.71825 0.736926 2.8657 0.841887 3.04002C0.946848 3.21435 1.00896 3.41067 1.02321 3.61314Z" fill="#2788BF"/>
</svg>
