<svg width="4" height="4" viewBox="0 0 4 4" fill="none" xmlns="http://www.w3.org/2000/svg">
<path d="M3.31402 3.13558C3.5445 2.9995 3.68339 2.71198 3.67452 2.30814C3.65901 1.5034 3.07245 0.542825 2.36473 0.159472C2.01308 -0.0314724 1.69985 -0.044641 1.47158 0.0863134L0.173604 0.853017L0 0.955437C0.0192074 0.944463 0.0391489 0.93349 0.0598338 0.923979L0.0768235 0.916665H0.0842182L0.0960316 0.912276L0.107854 0.907886L0.117458 0.904229L0.132229 0.89984H0.138885L0.158093 0.894718C0.364203 0.841312 0.61611 0.880816 0.890924 1.03006C1.21089 1.21599 1.48458 1.47077 1.69173 1.77555C1.99314 2.2028 2.19112 2.71784 2.20072 3.17947V3.24312C2.20035 3.2497 2.20035 3.25629 2.20072 3.26287C2.20072 3.28262 2.20072 3.30238 2.20072 3.3214V3.33018C2.1756 3.64842 2.04928 3.87886 1.85647 3.99958L2.09582 3.85839L3.31402 3.13558Z" fill="#2788BF"/>
</svg>
