<svg width="26" height="17" viewBox="0 0 26 17" fill="none" xmlns="http://www.w3.org/2000/svg">
<path d="M1.07522 2.45186L1.0433 2.3476L12.5277 0.581228C12.5735 0.682505 12.6528 0.765303 12.7525 0.815981C12.9449 0.917722 13.1616 0.965626 13.3794 0.954547C13.5978 0.954565 13.811 0.888884 13.9908 0.766206L22.4757 5.61331C22.3161 5.70546 22.2189 5.83394 22.2325 5.97519C22.2441 6.09627 22.3344 6.20389 22.4737 6.28394C22.5899 6.34754 22.717 6.38949 22.8486 6.40771L19.7751 13.0669C19.6249 13.0448 19.4719 13.0477 19.3227 13.0757L19.5211 13.1893C19.5835 13.2216 19.6447 13.2566 19.7044 13.2943L19.7336 13.3138C19.9904 13.4832 20.2113 13.7007 20.3837 13.9541L25.7102 16.9999L25.7944 16.9555L20.2709 13.7974C20.3173 13.7644 20.3547 13.7205 20.3799 13.6697C20.405 13.6189 20.417 13.5627 20.4149 13.5062C20.4034 13.3844 20.3123 13.2754 20.1724 13.1961C20.0835 13.1464 19.9876 13.1102 19.8878 13.0884L23.1087 6.4252C23.5659 6.41174 23.917 6.18842 23.8926 5.92542C23.8803 5.803 23.7893 5.69403 23.648 5.61331C23.4547 5.51159 23.2371 5.46348 23.0184 5.47407C22.8621 5.47749 22.7078 5.50966 22.5633 5.56892L14.0621 0.707686C14.0971 0.675164 14.1245 0.635413 14.1424 0.591245C14.1602 0.547078 14.1681 0.499573 14.1653 0.452081C14.1545 0.329659 14.0628 0.220689 13.9228 0.139971C13.7288 0.0388134 13.5109 -0.00903207 13.2918 0.00140549C12.8347 0.0148585 12.4836 0.238849 12.5121 0.51329L1.00525 2.2837C0.957586 2.22372 0.898225 2.17385 0.830696 2.13706C0.638152 2.03581 0.421491 1.98816 0.203769 1.99917C0.135435 2.00089 0.0673246 2.00764 0 2.01935L1.04126 2.61599C1.0683 2.56566 1.0801 2.50867 1.07522 2.45186Z" fill="#B3DFEF"/>
</svg>
