<svg width="12" height="7" viewBox="0 0 12 7" fill="none" xmlns="http://www.w3.org/2000/svg">
<path d="M4.02995 6.68994C4.09999 6.70454 4.17151 6.71768 4.24229 6.7301C6.30221 7.09516 8.63345 6.81041 10.2569 5.87585C10.4988 5.73771 10.7285 5.57943 10.9433 5.40273C11.7764 4.71204 12.1163 3.88481 11.9652 3.08021C11.9519 3.01085 11.9357 2.94076 11.915 2.87139C11.8744 2.73767 11.8221 2.6077 11.7587 2.48297C11.6508 2.27452 11.5173 2.08006 11.3613 1.90398C11.0366 1.54532 10.6539 1.24258 10.2289 1.00812C7.87849 -0.336039 4.07861 -0.336039 1.74295 1.00812C-0.325083 2.19822 -0.551424 4.04397 1.05656 5.38448C1.27983 5.56851 1.51887 5.73292 1.77097 5.87585C2.47512 6.26519 3.23782 6.54005 4.02995 6.68994ZM2.21038 1.49803C2.24353 1.48147 2.28015 1.47285 2.31728 1.47285C2.35442 1.47285 2.39103 1.48147 2.42418 1.49803L4.01594 2.40849L5.27962 2.27489C5.32602 2.2691 5.3731 2.27751 5.41454 2.29898C5.46172 2.33256 5.46836 2.36761 5.44477 2.39681L4.56373 3.48397L7.46635 2.27196C7.49843 2.25931 7.5329 2.25367 7.56738 2.25543C7.60187 2.2572 7.63556 2.26632 7.66615 2.28218C7.7185 2.31212 7.72587 2.3552 7.68311 2.3939L5.24644 4.3864L8.24122 3.31458C8.29574 3.29488 8.35554 3.29488 8.41006 3.31458C8.46461 3.34452 8.48378 3.37664 8.46756 3.40658L7.90945 4.63318L9.4002 5.4867C9.41313 5.49096 9.42438 5.49914 9.43234 5.51008C9.44031 5.52102 9.4446 5.53417 9.4446 5.54766C9.4446 5.56115 9.44031 5.5743 9.43234 5.58525C9.42438 5.59619 9.41313 5.60437 9.4002 5.60863C9.36715 5.62553 9.3305 5.63435 9.2933 5.63435C9.2561 5.63435 9.21945 5.62553 9.1864 5.60863L7.63445 4.7208L7.59464 4.6383L8.07534 3.5745L4.77238 4.75731C4.74195 4.76791 4.70965 4.77227 4.67746 4.77014C4.64527 4.76801 4.61385 4.75941 4.58511 4.74489C4.53277 4.7135 4.52687 4.6675 4.56816 4.63391L6.91045 2.72026L4.26956 3.82274C4.21029 3.84688 4.14379 3.84688 4.08451 3.82274C4.02922 3.79208 4.01668 3.74973 4.04396 3.71907L5.04812 2.47786L3.99456 2.58957C3.94841 2.59493 3.9017 2.58654 3.86038 2.56547L2.21038 1.62069C2.15287 1.58638 2.15213 1.53235 2.21038 1.49803Z" fill="#2788BF"/>
</svg>
