<svg width="12" height="7" viewBox="0 0 12 7" fill="none" xmlns="http://www.w3.org/2000/svg">
<path d="M10.2566 5.87764C10.4985 5.73913 10.7284 5.58086 10.9438 5.40449C11.9848 4.53998 12.2562 3.46299 11.7585 2.48384C11.6504 2.27486 11.5167 2.07989 11.3603 1.90336C11.0356 1.54513 10.6531 1.24264 10.2286 1.00817C7.8773 -0.336058 4.07795 -0.336058 1.74216 1.00817C-0.3223 2.19834 -0.553077 4.04347 1.05573 5.38405C1.27881 5.56857 1.51789 5.73325 1.77018 5.87618C4.12145 7.22114 7.9208 7.22114 10.2566 5.87764ZM4.16422 3.18041C4.36034 2.9066 4.73121 2.69631 5.13304 2.51888C4.85655 2.32904 4.70688 2.08079 4.73489 1.8318C4.77176 1.50907 5.06963 1.22576 5.42501 0.984077C5.51275 0.924204 5.60566 0.865794 5.70003 0.809571C5.8002 0.743286 5.90692 0.687259 6.01855 0.642361C6.14015 0.604041 6.27076 0.604041 6.39236 0.642361C6.49264 0.671568 6.57448 0.719028 6.66959 0.751886C6.71141 0.767071 6.75502 0.776889 6.79936 0.781094L6.8635 0.757728L6.95861 0.745317L7.04857 0.76284L7.07069 0.769409L7.11345 0.789856L7.18128 0.862872V0.910334V0.927858L7.16948 0.946112L7.08396 0.998681L7.05299 1.01475L6.97926 1.01986C6.92956 1.02205 6.87982 1.01663 6.8318 1.00379L6.77871 0.981158L6.71825 0.913984L6.70572 0.89573C6.62526 0.872145 6.54644 0.843364 6.46978 0.809571C6.39523 0.771599 6.3155 0.744542 6.2331 0.729251C6.1203 0.720489 6.0274 0.789857 5.95366 0.832206C5.86076 0.884778 5.76934 0.939539 5.68233 0.995032C5.35055 1.20678 5.05046 1.45358 4.96198 1.7398C4.88014 2.00558 5.02539 2.28596 5.34686 2.48311L5.38667 2.50501L5.40879 2.51815C5.81368 2.71766 6.26809 2.79727 6.71752 2.74743C7.17217 2.69173 7.61188 2.55047 8.01296 2.33123C8.11127 2.28255 8.20565 2.23071 8.29609 2.17571C8.36982 2.1319 8.49 2.07933 8.47378 2.01434C8.46346 1.97272 8.38678 1.91942 8.33296 1.87926C8.28052 1.84351 8.23547 1.79816 8.20024 1.74564L8.15084 1.73688C8.11387 1.73456 8.07776 1.72488 8.04467 1.7084L7.99453 1.67189L7.96651 1.58866L7.97462 1.54265L8.00191 1.52513C8.02792 1.50132 8.05964 1.48448 8.09407 1.47621L8.12577 1.46891H8.156H8.23784C8.28363 1.47247 8.32812 1.48567 8.36835 1.50761L8.40226 1.5317L8.4148 1.54485L8.44503 1.59669L8.42365 1.65072L8.3912 1.67919L8.43544 1.7617C8.49369 1.81647 8.57553 1.8632 8.62641 1.92015C8.64276 1.93344 8.65594 1.95015 8.66499 1.96909C8.67404 1.98803 8.67873 2.00872 8.67873 2.02967C8.67873 2.05062 8.67404 2.07132 8.66499 2.09026C8.65594 2.10919 8.64276 2.12591 8.62641 2.1392C8.53692 2.21082 8.43945 2.27207 8.33591 2.32174C8.2376 2.37674 8.13659 2.4298 8.03287 2.48091C7.57489 2.71434 7.07251 2.84991 6.55826 2.87885C6.11226 2.89953 5.66859 2.80385 5.27165 2.60139C5.18023 2.64082 5.09175 2.68244 5.00549 2.72625C4.81982 2.81512 4.64739 2.92887 4.49306 3.06432C4.37214 3.17676 4.26597 3.30819 4.24385 3.44254C4.21362 3.63677 4.35371 3.82223 4.58964 3.95731C4.62725 3.97848 4.66337 3.99893 4.70983 4.01791C4.93031 4.12388 5.17573 4.16855 5.41985 4.14715C5.50241 4.13917 5.5844 4.12625 5.66538 4.10845C5.97801 4.0329 6.27992 3.91909 6.56416 3.76965C6.8152 3.63192 7.07705 3.51447 7.34718 3.41845C7.6421 3.32572 8.01075 3.26146 8.32411 3.36003C8.38228 3.37801 8.43818 3.40251 8.49074 3.43305C8.5692 3.4758 8.63697 3.53543 8.68908 3.60756C8.71994 3.65191 8.74022 3.70263 8.74839 3.75588C8.75657 3.80913 8.75242 3.86353 8.73626 3.91496C8.68023 4.12378 8.47452 4.32166 8.22457 4.4728C8.03213 4.58744 7.82126 4.69185 7.6185 4.8043C7.41574 4.91674 7.1916 5.03357 6.97557 5.14674C6.75954 5.25992 6.52508 5.38259 6.29725 5.50014C6.53024 5.6951 6.49706 5.9638 6.1955 6.13758C5.85487 6.33326 5.29967 6.33326 4.95682 6.13758C4.61398 5.94189 4.61176 5.62281 4.9524 5.4264C5.29304 5.22998 5.82021 5.23071 6.16453 5.41179C6.49731 5.24093 6.82737 5.06838 7.15474 4.89411C7.36954 4.7802 7.58262 4.66508 7.79398 4.54874C7.94843 4.47236 8.09637 4.38372 8.23637 4.28369C8.43544 4.12597 8.60502 3.91861 8.5394 3.72585C8.50594 3.63508 8.43903 3.56022 8.35213 3.51629L8.29019 3.48489C8.23109 3.46002 8.16882 3.44331 8.10513 3.43524C8.03522 3.42632 7.9646 3.42412 7.89426 3.42867C7.74232 3.44113 7.59251 3.47203 7.44819 3.52067C7.30982 3.56398 7.17499 3.61768 7.04488 3.6813C6.92396 3.73972 6.81042 3.80251 6.69097 3.86166C6.54867 3.93467 6.40195 3.9982 6.24859 4.05807C5.95366 4.17271 5.59607 4.28515 5.22963 4.2669C5.04075 4.25537 4.85489 4.21447 4.67886 4.14569C4.5984 4.11562 4.52049 4.07924 4.44587 4.03689C4.37349 3.99544 4.30577 3.94649 4.24385 3.89086C4.14249 3.80669 4.07263 3.69123 4.04551 3.56302C4.01971 3.43305 4.07648 3.30381 4.16422 3.18041Z" fill="#03476D"/>
</svg>
