<svg width="5" height="4" viewBox="0 0 5 4" fill="none" xmlns="http://www.w3.org/2000/svg">
<path d="M0.0261145 1.6553C0.0261145 1.66464 0.0261145 1.6747 0.0261145 1.68475C0.0264408 1.68738 0.0264408 1.69003 0.0261145 1.69265C0.0261145 1.70343 0.0261145 1.71349 0.0261145 1.72426C0.0263966 1.72689 0.0263966 1.72953 0.0261145 1.73216C0.0261145 1.74293 0.0261145 1.7537 0.0261145 1.76376C0.0257651 1.76662 0.0257651 1.76951 0.0261145 1.77238C0.0269011 1.78275 0.0283589 1.79307 0.0304704 1.80327C0.0304704 1.80327 0.0304704 1.80901 0.0304704 1.8126C0.0304704 1.81619 0.0304672 1.83271 0.0362694 1.84276V1.8521C0.0362694 1.86216 0.0413534 1.87221 0.0435293 1.88155V1.89161L0.0522322 1.92034C0.052646 1.92416 0.052646 1.92801 0.0522322 1.93183L0.0616612 1.95984C0.0613568 1.96318 0.0613568 1.96655 0.0616612 1.9699C0.0652875 1.97923 0.0681808 1.98857 0.0718072 1.99863C0.0754336 2.00868 0.0718122 2.00581 0.0768891 2.01012C0.0766003 2.01251 0.0766003 2.01492 0.0768891 2.0173C0.0768891 2.02448 0.081965 2.03095 0.0848661 2.03813L0.0899391 2.04818L0.102272 2.07548C0.104248 2.08047 0.106673 2.08528 0.109523 2.08985C0.109523 2.09846 0.117503 2.10636 0.12113 2.11426C0.124756 2.12216 0.126206 2.1236 0.129833 2.12863L0.14144 2.15161C0.14144 2.15808 0.149419 2.16383 0.152321 2.17029L0.164645 2.18968L0.176252 2.20908L0.187858 2.22703L0.20236 2.24858L0.213241 2.26438C0.217593 2.27084 0.223392 2.27802 0.228469 2.28449C0.233546 2.29095 0.237176 2.29598 0.240802 2.30244C0.244428 2.30891 0.251679 2.31538 0.256756 2.32256L0.269815 2.33836L0.287947 2.35991L0.300271 2.37499C0.306798 2.38217 0.312601 2.38936 0.319129 2.39582L0.332913 2.4109C0.339441 2.4188 0.346688 2.42599 0.35394 2.43317C0.357662 2.43805 0.36179 2.44261 0.366273 2.44681L0.392382 2.47267L0.401811 2.48201L0.427194 2.50571L0.439527 2.5172L0.467088 2.54234L0.477969 2.55167L0.504803 2.57466L0.519305 2.58616C0.545415 2.60771 0.572975 2.62924 0.600536 2.65007H0.604892L0.637526 2.67378L0.650585 2.68312L0.691195 2.71113L0.696994 2.71472C0.720928 2.73052 0.745588 2.74704 0.769522 2.76213C0.793456 2.77721 0.820295 2.79301 0.846405 2.80881C1.97203 3.45524 3.78885 3.45524 4.90795 2.80881L4.95944 2.77792H4.96452L5.00006 2.75566C4.44087 2.39654 3.96074 1.93757 3.66991 1.43193C3.35949 0.892523 3.32177 0.404116 3.50962 0.0421188L3.4516 0.034938C2.53485 -0.074954 1.54339 0.0744403 0.834073 0.482405C0.276336 0.803462 -0.0014449 1.22363 5.65148e-06 1.64453L0.0261145 1.6553ZM1.06906 0.513285L4.73098 2.61058L4.74839 2.67522L4.69327 2.68958L4.68891 2.69604L1.44331 0.836497L1.0212 0.594448L1.00524 0.58511L1.01467 0.57003L1.00379 0.530522L1.06906 0.513285Z" fill="#E4EEFA"/>
</svg>
