<svg width="5" height="6" viewBox="0 0 5 6" fill="none" xmlns="http://www.w3.org/2000/svg">
<path d="M1.34989 1.80907C1.56546 1.6807 1.86629 1.69326 2.20164 1.87884C2.87655 2.24443 3.43592 3.16257 3.45072 3.92792C3.45776 4.31304 3.32672 4.58722 3.10692 4.71699L1.94308 5.4042C2.08024 5.51056 2.22505 5.60686 2.37635 5.69235C3.02802 6.05723 3.61698 6.08583 4.04109 5.83816L4.04743 5.83397L4.07914 5.81444L4.09181 5.80607L4.11647 5.78931L4.13408 5.77606L4.1531 5.76211C4.16085 5.75723 4.1672 5.75094 4.17424 5.74606L4.18903 5.73351L4.21228 5.71467L4.22496 5.7035L4.25103 5.67908L4.25878 5.67211L4.28837 5.6428C4.49081 5.41843 4.62448 5.14158 4.67373 4.84467C4.68219 4.80002 4.68994 4.75536 4.69628 4.70513C4.71316 4.57558 4.72115 4.44505 4.72022 4.31443C4.71823 4.14155 4.70387 3.96902 4.67726 3.79815C4.66317 3.70606 4.64556 3.61327 4.62513 3.51908C4.60047 3.41164 4.57159 3.3035 4.53918 3.19466C4.48598 3.02095 4.42389 2.85003 4.35318 2.68256C3.93048 1.68558 3.18653 0.763256 2.34183 0.289533C2.19176 0.204682 2.03367 0.13458 1.86981 0.0802303L1.82754 0.0676726L1.81204 0.0627883C1.79795 0.0579046 1.78387 0.0544174 1.76978 0.050929L1.75568 0.0467431L1.72469 0.0390697L1.69791 0.0320904L1.67467 0.0265121L1.64296 0.0195327L1.61619 0.0153468C1.60703 0.0153468 1.59787 0.0111632 1.58801 0.00907014H1.56406L1.53306 0.00418589H1.51263L1.48023 0H1.4612H1.42598H1.41188H1.37385H1.35975H1.32171H1.25972C1.24633 0 1.23294 0 1.21955 0H1.2111H1.17024H1.16038L1.12163 0.00418589C1.11882 0.00378516 1.11598 0.00378516 1.11317 0.00418589C1.0997 0.00536098 1.0863 0.00722087 1.07302 0.00976424H1.06527L1.02511 0.0174419H1.02089L0.979325 0.0265121H0.972273L0.933531 0.037673H0.927889C0.914504 0.0411614 0.901123 0.0460446 0.888442 0.0502307L0.84828 0.0648834H0.843353L0.805307 0.0809286H0.800379L0.763743 0.0976722H0.7567L0.721475 0.115114H0.716539C0.270589 0.355813 -0.00486639 0.890929 6.51276e-05 1.65768C6.51276e-05 1.7114 6.13435e-05 1.76442 0.00499286 1.81884C0.0192561 2.05997 0.055572 2.29933 0.113489 2.53396L1.34989 1.80907Z" fill="#E4EEFA"/>
</svg>
