<svg width="16" height="10" viewBox="0 0 16 10" fill="none" xmlns="http://www.w3.org/2000/svg">
<path d="M16 0.899635C15.8952 0.879141 15.7944 0.842292 15.7013 0.790466C15.3903 0.613235 15.3753 0.330876 15.655 0.143537L15.4032 0V0.218341C15.4011 0.319413 15.3727 0.418238 15.3209 0.505329C15.269 0.59242 15.1955 0.664848 15.1072 0.715662L14.5451 1.03913C14.5305 1.12488 14.497 1.20639 14.4471 1.2779C14.3971 1.3494 14.3318 1.40914 14.2559 1.45289L0 9.63988C0.0409177 9.65562 0.080509 9.67454 0.118402 9.69648C0.20281 9.74185 0.273326 9.80889 0.322544 9.89056L7.82886 8.7362L14.0089 5.20978L16 0.899635Z" fill="#9FD1FF"/>
</svg>
