<svg width="60" height="34" viewBox="0 0 60 34" fill="none" xmlns="http://www.w3.org/2000/svg">
<path d="M45.0814 13.8701C45.0814 13.9998 45.0357 14.0903 44.9613 14.1336L44.3474 14.4882L44.3638 14.4747C44.2873 14.5301 44.1775 14.5308 44.052 14.4592L40.5974 12.4838L39.3784 13.1716L51.8991 20.3326L50.9822 20.8595L38.4534 13.6985L37.8517 14.0363L50.384 21.2027L49.4678 21.7297L47.3196 20.5015L36.9232 14.5565L36.3222 14.8943L48.8743 22.0702L47.9575 22.5971L35.3986 15.4172L34.7976 15.7549L39.9398 18.695L39.0237 19.2226L33.8725 16.2772L31.68 17.5148L43.9258 24.5184L35.0622 29.6196L7.06361 13.6087L5.46322 12.6933L14.3268 7.59271L29.098 16.0373L26.1421 10.9706L25.4115 11.3908L15.0362 5.46197L20.9459 2.06116L20.0946 0.597879L19.0488 0L0.273204 10.8057C0.190018 10.8541 0.121051 10.9233 0.073131 11.0062C0.0252114 11.0892 0 11.1831 0 11.2786C0 11.3742 0.0252114 11.4681 0.073131 11.551C0.121051 11.634 0.190018 11.7031 0.273204 11.7515L37.5884 33.059C37.8306 33.1977 38.1056 33.2708 38.3855 33.2708C38.6654 33.2708 38.9403 33.1977 39.1826 33.059L41.2701 31.8585L42.3616 31.2315L59.7271 21.2372C59.8108 21.1893 59.8801 21.1203 59.9281 21.0373C59.976 20.9542 60.0008 20.86 60 20.7643C60.0005 20.6683 59.9752 20.5738 59.9266 20.4907C59.878 20.4076 59.808 20.3388 59.7237 20.2914L43.3241 10.9233L42.06 11.6509L42.0423 11.6603L44.6694 13.1635C44.7895 13.2407 44.8894 13.345 44.9611 13.4678C45.0327 13.5906 45.0739 13.7285 45.0814 13.8701Z" fill="#2788BF"/>
</svg>
