<svg width="13" height="5" viewBox="0 0 13 5" fill="none" xmlns="http://www.w3.org/2000/svg">
<path d="M0 0.793555C0.00111585 1.11143 0.069292 1.42556 0.200157 1.71582C0.228651 1.78051 0.259925 1.84452 0.294674 1.90853C0.329424 1.97254 0.364173 2.03448 0.407262 2.09642C0.659267 2.47398 0.977497 2.80381 1.34689 3.0703C1.52862 3.20505 1.71847 3.3287 1.91539 3.44058C4.45696 4.89418 8.56503 4.89418 11.0892 3.44058C11.291 3.32533 11.4851 3.19727 11.6702 3.05722C12.5376 2.39994 12.9726 1.61189 12.9747 0.827283L12.9997 0.153479C12.9997 0.16105 12.9997 0.169311 12.9997 0.176882C13.0001 0.17824 13.0001 0.179654 12.9997 0.181011C12.9997 0.194088 12.9997 0.207166 12.9963 0.220931C12.9963 0.220931 12.9963 0.220928 12.9963 0.226434L12.9921 0.264287C12.9918 0.266799 12.9918 0.269349 12.9921 0.271861C12.9921 0.28425 12.9886 0.295948 12.9865 0.308337C12.9845 0.320725 12.9865 0.313153 12.9865 0.315906C12.9865 0.318659 12.9865 0.340686 12.981 0.353075C12.9813 0.355361 12.9813 0.357669 12.981 0.359956C12.981 0.372344 12.9768 0.385421 12.974 0.398498V0.408134L12.9657 0.448054C12.9657 0.448054 12.9657 0.452181 12.9657 0.453557C12.9657 0.466634 12.9601 0.479026 12.9581 0.491415C12.9578 0.49416 12.9578 0.496928 12.9581 0.499673L12.9497 0.536149C12.9497 0.536149 12.9497 0.539591 12.9497 0.541656L12.9393 0.580887C12.9351 0.594652 12.9316 0.608416 12.9275 0.622869L12.915 0.662789C12.9153 0.665534 12.9153 0.668303 12.915 0.671048C12.915 0.682748 12.908 0.695138 12.9038 0.706838C12.9037 0.709359 12.9037 0.711888 12.9038 0.714408C12.8997 0.726797 12.8955 0.739184 12.8906 0.751572C12.8906 0.751572 12.8906 0.751572 12.8906 0.755702L12.876 0.795622V0.799062C12.8705 0.812139 12.8656 0.825216 12.8608 0.838293V0.8438C12.8552 0.856877 12.8496 0.869955 12.8448 0.883031C12.8392 0.896108 12.833 0.909871 12.8274 0.923636C12.8272 0.925234 12.8272 0.926856 12.8274 0.928454C12.8218 0.941531 12.8156 0.954608 12.8093 0.967685L12.7899 1.00898C12.7829 1.02274 12.7767 1.03582 12.769 1.04959C12.7614 1.06266 12.7544 1.07712 12.7468 1.09157L12.7238 1.13287C12.4458 1.62979 11.9781 2.09642 11.3248 2.50456H11.3193C11.2644 2.53897 11.2095 2.57338 11.1518 2.60504C8.62689 4.05795 4.51881 4.05795 1.97794 2.60504C1.93763 2.58233 1.89871 2.55893 1.85979 2.53622L1.76597 2.4784L1.74581 2.46533C1.73924 2.46168 1.73297 2.45754 1.72705 2.45294L1.68952 2.42954L1.67214 2.41784L1.6367 2.39443L1.59152 2.36415L1.54148 2.32974L1.52967 2.32148L1.49422 2.2967L1.47824 2.285C1.46504 2.27606 1.45322 2.26711 1.44071 2.25747L1.4275 2.24784L1.39693 2.22513L1.37677 2.20998L1.3455 2.18659L1.32812 2.17282L1.30032 2.15079L1.27948 2.13428L1.2489 2.1095L1.2336 2.09711L1.1926 2.06338L1.18774 2.05926L1.15924 2.03517L1.14048 2.01865L1.11824 1.99938L1.06472 1.99112L1.03831 1.96772L1.02163 1.95258L0.988966 1.92229L0.979935 1.91403L0.943795 1.87962L0.938929 1.8748H0.935455L0.902789 1.84246L0.897923 1.83764L0.865261 1.8046L0.858313 1.79703L0.820781 1.75849L0.786727 1.71582C0.78494 1.71389 0.783313 1.71181 0.781861 1.70962C0.772827 1.70067 0.763791 1.69104 0.755452 1.6814L0.749199 1.67452L0.716532 1.63736C0.707498 1.62634 0.697767 1.61671 0.689427 1.6057L0.6797 1.59468C0.670665 1.58367 0.66163 1.57335 0.65329 1.56234L0.646338 1.55408L0.642168 1.54926C0.634523 1.53894 0.626185 1.52861 0.617845 1.51898L0.613676 1.51347L0.587961 1.48044L0.580317 1.47011C0.571656 1.45951 0.563535 1.44848 0.55599 1.43708L0.549738 1.42951L0.521937 1.39027L0.494831 1.35173L0.469117 1.31319V1.30906C0.460082 1.29667 0.452438 1.28428 0.444098 1.27189C0.444311 1.27006 0.444311 1.26821 0.444098 1.26639C0.427419 1.23954 0.410737 1.2127 0.394753 1.18586V1.18104L0.372513 1.14319V1.13837L0.350272 1.09846L0.329424 1.05785L0.308575 1.01655C0.301625 1.00348 0.294677 0.98971 0.288422 0.976633C0.282862 0.963556 0.276607 0.951168 0.271047 0.938091C0.270785 0.936034 0.270785 0.933951 0.271047 0.931895C0.264792 0.918818 0.259232 0.905056 0.252977 0.891979L0.236298 0.852748V0.846552C0.230738 0.834163 0.225871 0.821776 0.221006 0.809388V0.803192C0.215446 0.789426 0.209887 0.775663 0.205022 0.761898C0.199462 0.748133 0.194595 0.733681 0.18973 0.719915C0.184865 0.70615 0.180695 0.693072 0.176525 0.679307C0.176525 0.679307 0.176525 0.679307 0.176525 0.675177C0.17166 0.661412 0.167495 0.646959 0.163325 0.632506C0.15846 0.618052 0.154981 0.604288 0.150811 0.589834C0.146641 0.576069 0.143168 0.561616 0.138998 0.546474C0.138998 0.533397 0.132742 0.519631 0.129267 0.506554C0.128941 0.504502 0.128941 0.502414 0.129267 0.500362C0.125792 0.486597 0.12232 0.472829 0.11954 0.459064C0.11954 0.444611 0.113285 0.430157 0.110505 0.415015C0.110505 0.40125 0.105637 0.387486 0.102857 0.373033C0.102857 0.373033 0.102857 0.373033 0.102857 0.368903C0.100094 0.35571 0.0980088 0.342385 0.0966043 0.328983C0.0966043 0.328983 0.0966043 0.328984 0.0966043 0.324854C0.0966043 0.311089 0.0931282 0.297326 0.0910433 0.284249C0.0913684 0.282892 0.0913684 0.281478 0.0910433 0.28012C0.0910433 0.266355 0.0910434 0.251903 0.0868735 0.238137C0.0833986 0.209231 0.0813146 0.180323 0.0792296 0.151417V0.121133C0.0795752 0.117471 0.0795752 0.113782 0.0792296 0.110119V0.106679C0.0792296 0.0936017 0.0792296 0.079839 0.0792296 0.0660739V0.0591889C0.0792296 0.046112 0.0792296 0.0337236 0.0792296 0.0206468V0V0.0571263V0.117004L0 0.793555Z" fill="#2788BF"/>
</svg>
