<svg width="29" height="14" viewBox="0 0 29 14" fill="none" xmlns="http://www.w3.org/2000/svg">
<path d="M28.3648 0.267642L27.3342 0.829885L27.343 0.824495C26.8604 1.10697 26.2109 1.10696 25.4859 0.771234L14.2324 7.27953C14.2344 7.2778 14.2367 7.27642 14.2392 7.27549C13.8308 7.51481 13.2603 7.48717 12.6306 7.13459C12.4844 7.05198 12.3445 6.95893 12.212 6.85616L11.9914 6.98628C11.7824 7.11639 11.487 7.10829 11.1575 6.92964L10.0213 7.6038L9.97706 7.63482L8.26497 8.17414C8.16966 8.23144 8.03623 8.22672 7.88715 8.14582C7.77787 8.08344 7.68154 8.00109 7.60328 7.90313L7.17577 8.15121C7.13592 8.22699 7.11735 8.31197 7.12198 8.39728C7.12725 8.51912 7.15542 8.63892 7.20504 8.75054L0.0387711 12.9087H0.0435327C0.0287229 12.9173 0.0167675 12.93 0.00914613 12.9452C0.00152474 12.9604 -0.00142943 12.9775 0.000645048 12.9944C0.00323263 13.0387 0.0164366 13.0819 0.0391617 13.1202C0.0618867 13.1585 0.0934849 13.1909 0.131352 13.2148L0.221889 13.2236L7.39769 9.06267C7.47462 9.16105 7.5701 9.2437 7.67884 9.30604C7.82793 9.38627 7.96068 9.39166 8.05666 9.33503L9.76874 8.79571L9.813 8.7647L10.9492 8.09055C11.2739 8.26717 11.5618 8.27728 11.7742 8.15189L12.0064 8.01706C12.1383 8.12035 12.278 8.21343 12.4244 8.29548C13.052 8.64739 13.6184 8.67571 14.0282 8.4384H14.0343L25.279 1.9355C26.0013 2.27258 26.6493 2.27258 27.1313 1.99078H27.1265L28.1572 1.42854C28.599 1.1737 28.906 0.683594 29 0L28.6596 0.0525861C28.5709 0.136245 28.4718 0.208499 28.3648 0.267642Z" fill="#63B4FF"/>
</svg>
