<svg width="9" height="5" viewBox="0 0 9 5" fill="none" xmlns="http://www.w3.org/2000/svg">
<path d="M0.0321702 2.51366V2.5829C0.0321702 2.59952 0.0321702 2.61683 0.0321702 2.63414C0.053147 3.02538 0.324441 3.41453 0.847462 3.71298C1.83967 4.28079 3.39265 4.32858 4.47505 3.85771L4.50092 3.87225V3.86602L4.5184 3.83624L4.54637 3.82378C4.6163 3.78916 4.69041 3.75453 4.75614 3.71298C4.93504 3.61308 5.09769 3.48703 5.23861 3.33906C5.28266 3.36122 5.32671 3.38338 5.37076 3.40415L5.35817 3.42562L5.34978 3.43669C5.34489 3.445 5.3393 3.45263 5.3337 3.46094L5.32391 3.47478L5.30783 3.49625L5.29734 3.5094L5.28056 3.53156L5.26658 3.54819L5.2519 3.56618L5.23791 3.58212C5.23232 3.58835 5.22602 3.59457 5.22043 3.6015L5.20924 3.61327C5.20225 3.62089 5.19596 3.62782 5.18827 3.63474C5.18058 3.64167 5.17568 3.64789 5.17009 3.65412L5.15541 3.66867L5.13583 3.68736L5.11974 3.7026L5.09946 3.72061L5.08268 3.73514L5.05681 3.7573L5.04492 3.76769L5.02465 3.78431L5.00367 3.80092L4.98549 3.81478L4.96242 3.83209L4.93515 3.85147L4.91907 3.86394L4.8876 3.88541L4.87432 3.89441L4.84984 3.91034L4.77992 3.95465L4.73027 3.98373C3.65276 4.60694 1.8998 4.60694 0.814601 3.98373C0.785233 3.96711 0.756567 3.9498 0.729297 3.93249L0.716007 3.92418L0.702726 3.91587L0.668465 3.89372L0.653084 3.88333L0.623713 3.86255C0.611127 3.85494 0.599239 3.84524 0.587352 3.83693L0.579662 3.83209L0.559381 3.81616L0.53701 3.79885L0.520229 3.78569L0.496458 3.76699L0.474778 3.7483L0.457297 3.73376L0.437017 3.71575L0.419536 3.70052L0.401355 3.68252C0.3952 3.67757 0.389362 3.67226 0.383875 3.66659L0.367094 3.64997L0.349613 3.63266L0.333533 3.61535L0.316752 3.59804C0.312556 3.59319 0.307666 3.58835 0.303471 3.58281L0.28529 3.56342C0.281095 3.55719 0.276195 3.55165 0.2713 3.54541L0.256619 3.5281L0.243338 3.51148C0.238056 3.50532 0.233147 3.49884 0.228648 3.49209L0.218158 3.47825C0.212565 3.47063 0.206972 3.4637 0.202078 3.45608L0.192287 3.44293L0.176906 3.42008C0.176906 3.41592 0.172013 3.41177 0.169216 3.40831C0.166419 3.40485 0.159429 3.39168 0.153835 3.38407L0.145445 3.37022C0.141588 3.36229 0.137143 3.35466 0.132155 3.34737L0.125164 3.33283C0.120291 3.32559 0.116084 3.31795 0.112583 3.30998L0.104884 3.29544C0.101578 3.28785 0.0978487 3.28045 0.0937025 3.27328C0.0923313 3.26837 0.0902028 3.2637 0.0874033 3.25943C0.0874033 3.25181 0.0804186 3.24351 0.0776217 3.23589C0.0755825 3.23069 0.0732412 3.22559 0.0706226 3.22065L0.0622322 3.19849L0.0566415 3.18396C0.0566415 3.17634 0.0510487 3.16802 0.048951 3.16041C0.0468533 3.15279 0.0489462 3.1521 0.0440516 3.14725C0.039157 3.14241 0.0391581 3.13064 0.0363612 3.12302C0.0335642 3.1154 0.0363612 3.11401 0.0363612 3.10986C0.0363612 3.1057 0.0321675 3.09324 0.0293706 3.08493C0.0285362 3.08024 0.0273645 3.07561 0.025871 3.07109C0.025871 3.06347 0.0258748 3.05515 0.0209802 3.04684C0.0160856 3.03853 0.0209802 3.03646 0.0209802 3.03092C0.0191809 3.02385 0.0177762 3.01668 0.0167808 3.00946C0.0167808 3.00392 0.0167808 2.99838 0.0167808 2.99353C0.0167808 2.98868 0.0167859 2.97829 0.0132897 2.97137C0.0136663 2.9663 0.0136663 2.96121 0.0132897 2.95614V2.9326C0.0132897 2.92775 0.0132897 2.92289 0.0132897 2.91736C0.0132897 2.91182 0.0132897 2.90212 0.0132897 2.89451V2.8862C0.0132897 2.87858 0.0132897 2.87027 0.0132897 2.86266L0 3.40207C0 3.81062 0.271304 4.22055 0.816701 4.53216C1.9019 5.15536 3.65416 5.15536 4.73237 4.53216C4.87049 4.45417 4.99947 4.36127 5.11694 4.25518L5.1568 4.21778L5.19037 4.18385C5.22323 4.14992 5.25399 4.11461 5.28196 4.07998C5.29105 4.06891 5.30084 4.05713 5.30923 4.04536C5.32671 4.02182 5.34419 3.99897 5.35957 3.97612C5.45999 3.82852 5.52021 3.65774 5.53438 3.48032C5.98596 3.68515 6.47476 3.79727 6.9713 3.80993C7.42719 3.80993 7.7838 3.69498 8.02014 3.49487C8.10366 3.4256 8.1746 3.34269 8.22989 3.24974L8.4956 2.82388C8.4956 2.82388 8.4956 2.82803 8.4914 2.8308C8.48721 2.83357 8.48162 2.84465 8.47672 2.85158L8.46834 2.86335L8.45436 2.88273C8.45095 2.88635 8.4479 2.8903 8.44526 2.89451L8.43058 2.91251L8.42148 2.9229L8.4047 2.9416L8.39632 2.9506L8.37814 2.96998L8.36904 2.97898L8.35018 2.99699L8.33968 3.00738L8.3215 3.0233L8.30892 3.03369L8.29074 3.04892L8.27745 3.05931L8.25927 3.07316L8.24389 3.08424L8.22571 3.09671L8.21241 3.10571L8.19145 3.12025L8.17675 3.12856L8.15649 3.14171L8.14109 3.15003L8.11873 3.16249L8.10405 3.1701L8.08167 3.18188L8.06489 3.19019L8.04111 3.20127L8.02783 3.2068L8.00126 3.21858L7.98517 3.22481L7.9593 3.23589H7.94951L7.91595 3.24766H7.90686L7.8719 3.25943H7.86211L7.82645 3.27051H7.82086L7.7803 3.28159C7.77801 3.28093 7.77559 3.28093 7.77331 3.28159C7.72856 3.29266 7.68171 3.30167 7.63346 3.30998C7.6006 3.31552 7.56354 3.32036 7.53138 3.32452C7.44036 3.33444 7.34885 3.3393 7.25728 3.33906C6.01195 3.33906 4.49883 2.45965 3.87862 1.38219C3.84366 1.32126 3.81218 1.26102 3.78421 1.20147L3.77512 1.18208C3.77023 1.17238 3.76674 1.16338 3.76254 1.15368C3.75835 1.14399 3.75625 1.13983 3.75345 1.1336C3.74157 1.1059 3.73108 1.0789 3.72059 1.05189L3.71429 1.03597C3.7101 1.02281 3.70521 1.00965 3.70101 0.997187V0.988878L3.69052 0.954949C3.69052 0.950102 3.69052 0.945258 3.68633 0.941103C3.68213 0.936949 3.67934 0.918253 3.67584 0.907174C3.67234 0.896095 3.67584 0.89886 3.67584 0.894013C3.67584 0.889166 3.67095 0.875314 3.66815 0.86562C3.66535 0.855926 3.66465 0.853163 3.66325 0.846931L3.65696 0.818538C3.65663 0.812772 3.65663 0.806992 3.65696 0.801227C3.65412 0.791234 3.65202 0.781047 3.65067 0.770754C3.65034 0.765681 3.65034 0.760595 3.65067 0.755522L3.64647 0.729902C3.64647 0.722978 3.64647 0.716743 3.64647 0.709818L3.64228 0.680048C3.6429 0.675452 3.6429 0.670789 3.64228 0.666193C3.64228 0.656499 3.64228 0.647503 3.64228 0.637809C3.64228 0.628115 3.64228 0.626731 3.64228 0.621884C3.64228 0.617037 3.64228 0.605952 3.64228 0.598335C3.64228 0.590718 3.64228 0.584491 3.64228 0.577566C3.64228 0.570642 3.64228 0.561641 3.64228 0.553332C3.64193 0.547105 3.64193 0.540862 3.64228 0.534634C3.64258 0.532568 3.64258 0.530463 3.64228 0.528396C3.64228 0.521472 3.64228 0.515246 3.64228 0.509014V0.493081C3.64228 0.484771 3.64228 0.477157 3.64228 0.46954C3.64228 0.461923 3.64228 0.456381 3.64228 0.450149C3.64228 0.443917 3.64228 0.437692 3.64228 0.43146V0.408603C3.64193 0.402376 3.64193 0.396133 3.64228 0.389906C3.64189 0.382987 3.64189 0.376057 3.64228 0.369137C3.64228 0.36152 3.64228 0.355285 3.64228 0.34836C3.64189 0.341903 3.64189 0.335427 3.64228 0.32897C3.64228 0.322738 3.64228 0.317205 3.64228 0.310281L3.64647 0.288811C3.64647 0.283963 3.64647 0.27912 3.64647 0.274965C3.64647 0.27081 3.64996 0.258347 3.65276 0.250038C3.65556 0.241728 3.65276 0.241031 3.65276 0.236877C3.65276 0.232722 3.65696 0.220259 3.65976 0.21195L3.66395 0.198789C3.66395 0.191172 3.66884 0.182865 3.67164 0.175248C3.67285 0.170495 3.67449 0.165864 3.67654 0.161402L3.68493 0.139239C3.68493 0.134392 3.68493 0.129548 3.68982 0.125393L3.69961 0.102545C3.7012 0.0989259 3.7026 0.0952255 3.70381 0.0914636C3.70801 0.0838466 3.7115 0.0755395 3.71569 0.0679226C3.71989 0.0603056 3.7157 0.0603026 3.72059 0.0561479C3.72497 0.0489871 3.72893 0.0415931 3.73247 0.0339931C3.73484 0.0302167 3.73695 0.0262805 3.73877 0.0222184C3.74367 0.0146014 3.74716 0.00697972 3.75205 5.5198e-05L3.63528 0.187715L3.46537 0.459151L3.4402 0.504162C3.2591 0.850388 3.29546 1.32402 3.59473 1.84405C3.87442 2.32877 4.338 2.77748 4.87711 3.12025L4.84284 3.14171H4.83795L4.78831 3.17149C3.7101 3.79469 1.95854 3.79469 0.872642 3.17149C0.84747 3.15625 0.822294 3.14171 0.79852 3.12648C0.774746 3.11124 0.749574 3.09602 0.728597 3.08078L0.723007 3.07732L0.683846 3.05031L0.671264 3.04131L0.639794 3.01846H0.635603C0.609033 2.99838 0.582462 2.9776 0.55729 2.95683L0.543301 2.94575L0.517429 2.92359L0.506939 2.91459L0.480368 2.89036L0.468487 2.87928L0.444016 2.85642L0.434926 2.84742L0.409754 2.82249C0.405432 2.81844 0.401453 2.81404 0.397864 2.80934C0.390872 2.80241 0.383877 2.79548 0.377584 2.78787L0.364303 2.77333C0.35801 2.7671 0.352415 2.76017 0.346122 2.75324L0.334232 2.73871L0.316752 2.71793L0.30417 2.7027C0.299276 2.69577 0.293676 2.68954 0.288781 2.68331C0.283886 2.67707 0.280396 2.67153 0.2769 2.66599C0.273403 2.66045 0.266405 2.65284 0.26221 2.64661L0.251728 2.63137L0.237739 2.6106L0.226549 2.59329L0.215367 2.57459L0.203477 2.5559C0.203477 2.54967 0.196483 2.54412 0.192987 2.53789L0.181806 2.51574C0.181806 2.51089 0.176212 2.50604 0.173415 2.50188C0.170618 2.49773 0.165722 2.48665 0.162225 2.47834C0.159478 2.47394 0.15714 2.46931 0.155235 2.4645L0.143345 2.43818L0.138454 2.42849C0.138454 2.42156 0.132853 2.41533 0.130755 2.4084C0.130477 2.4061 0.130477 2.40378 0.130755 2.40148C0.130755 2.39733 0.130759 2.39386 0.125864 2.3904C0.12097 2.38694 0.11957 2.3717 0.116074 2.3627C0.115781 2.35948 0.115781 2.35624 0.116074 2.35301L0.106984 2.32601C0.107383 2.32232 0.107383 2.31861 0.106984 2.31493L0.0985934 2.28723V2.27753C0.0985934 2.26853 0.0937005 2.25884 0.0916028 2.24915V2.24014C0.0916028 2.23045 0.0916059 2.22006 0.0860121 2.21106C0.0804182 2.20206 0.0860121 2.20483 0.0860121 2.20206C0.0839764 2.19223 0.082571 2.18228 0.0818126 2.17228C0.0814758 2.16952 0.0814758 2.16673 0.0818126 2.16397C0.0818126 2.15427 0.0818126 2.14389 0.0818126 2.1335C0.0820845 2.13097 0.0820845 2.12842 0.0818126 2.12589C0.0818126 2.1155 0.0818126 2.1058 0.0818126 2.09542C0.0821271 2.09289 0.0821271 2.09033 0.0818126 2.0878C0.0818126 2.0781 0.0818126 2.06842 0.0818126 2.05941V2.05526C0.0818126 2.05526 0.0818126 2.05526 0.0818126 2.04972L0.0321702 2.51366Z" fill="#ADDCEA"/>
</svg>
