<svg width="31" height="19" viewBox="0 0 31 19" fill="none" xmlns="http://www.w3.org/2000/svg">
<path d="M26.3872 11.7389L26.0447 11.7918L22.2091 12.3812C22.1795 12.3487 22.1448 12.3212 22.1063 12.2998C21.98 12.2339 21.838 12.2027 21.6954 12.2096C21.5953 12.2114 21.4964 12.2314 21.4036 12.2686L15.783 9.05555C15.9652 8.93346 15.9556 8.74964 15.7529 8.63433C15.692 8.60054 15.6261 8.57629 15.5577 8.56243L17.5563 4.23083H17.668C17.9659 4.22202 18.1954 4.07618 18.1789 3.90457L18.1687 3.86795L25.783 2.70128C25.816 2.75511 25.8634 2.79879 25.92 2.82744C26.0461 2.89411 26.1882 2.92553 26.331 2.91833C26.4384 2.91668 26.5444 2.89361 26.6426 2.8505L30.3851 4.99053V4.93151L26.6947 2.82201C26.7381 2.80122 26.7748 2.76879 26.8006 2.72838C26.8264 2.68798 26.8403 2.64122 26.8406 2.59343C26.8322 2.5494 26.8134 2.50798 26.7856 2.47259C26.7579 2.43721 26.722 2.40887 26.681 2.38994C26.5548 2.32337 26.4128 2.29195 26.27 2.29905C25.9707 2.30787 25.7419 2.4537 25.768 2.66126L18.1536 3.82996C18.1204 3.77631 18.073 3.73268 18.0166 3.7038C17.9045 3.64723 17.781 3.61635 17.6552 3.61341C17.5294 3.61048 17.4046 3.63557 17.2899 3.68684L11.7419 0.512416C11.7815 0.491436 11.8145 0.460103 11.8373 0.421829C11.8602 0.383556 11.8719 0.339811 11.8714 0.295363C11.8633 0.251321 11.8446 0.209848 11.817 0.174436C11.7893 0.139024 11.7535 0.110709 11.7125 0.0918743C11.5863 0.0253021 11.4443 -0.00611162 11.3015 0.000982929C11.0029 0.00980077 10.7734 0.156311 10.8022 0.372688L3.28166 1.52918C3.24852 1.47533 3.20115 1.43147 3.14467 1.40234C3.01853 1.33578 2.87643 1.30458 2.73371 1.31213C2.43439 1.32095 2.20563 1.46746 2.22207 1.63839C2.22992 1.68242 2.24842 1.72392 2.27597 1.75936C2.30352 1.79479 2.3393 1.8231 2.38029 1.84188C2.43773 1.87339 2.4996 1.89625 2.56385 1.90971L0.512475 6.23384C0.213845 6.24266 -0.0156074 6.38917 0.000830929 6.5601C0.00903117 6.60411 0.02773 6.64553 0.0553707 6.68092C0.0830114 6.71632 0.118793 6.74466 0.159735 6.76359C0.286125 6.82953 0.427984 6.8609 0.570694 6.85448C0.654188 6.85194 0.736834 6.83709 0.8159 6.81039L6.37686 9.98821C6.34658 10.0099 6.32216 10.0386 6.30579 10.0718C6.28942 10.1051 6.2816 10.1418 6.28303 10.1788C6.29116 10.2227 6.30975 10.2641 6.33727 10.2995C6.36479 10.3349 6.40043 10.3633 6.44125 10.3823C6.49961 10.4139 6.5624 10.4368 6.62755 10.4501L4.52344 14.8041C4.22481 14.8129 3.99536 14.9594 4.01179 15.1304C4.01999 15.1744 4.03869 15.2158 4.06633 15.2512C4.09397 15.2866 4.12975 15.3149 4.1707 15.3339C4.29688 15.4004 4.43889 15.4318 4.58166 15.4247C4.68377 15.4228 4.7846 15.4018 4.87892 15.363L10.4317 18.5381C10.4087 18.5594 10.3907 18.5853 10.3789 18.6141C10.3671 18.6429 10.3617 18.6739 10.3632 18.705C10.3714 18.749 10.3901 18.7904 10.4178 18.8258C10.4454 18.8611 10.4812 18.8895 10.5221 18.9085C10.6484 18.9745 10.7904 19.0057 10.933 18.9987C11.2323 18.9899 11.4611 18.844 11.4426 18.665L18.9584 17.5119C18.9896 17.551 19.0285 17.5836 19.0728 17.6075C19.1989 17.6739 19.341 17.7051 19.4837 17.6977C19.783 17.6889 20.0118 17.5424 19.9954 17.3708C19.9875 17.3268 19.9691 17.2854 19.9417 17.25C19.9143 17.2146 19.8787 17.1862 19.8378 17.1673C19.7709 17.1308 19.6986 17.1051 19.6234 17.0913L21.594 12.8181C21.6475 12.8263 21.7016 12.8297 21.7556 12.8282C22.0536 12.8201 22.2837 12.6736 22.2666 12.5027L22.2371 12.4206L26.0104 11.84L26.3776 11.783C26.381 11.7694 26.3837 11.7518 26.3872 11.7389ZM6.42207 9.95429L0.884393 6.78801C1.0159 6.72764 1.09741 6.63336 1.08987 6.5289C1.08173 6.48488 1.06305 6.44343 1.0354 6.40802C1.00775 6.37262 0.971943 6.34429 0.930969 6.32541C0.844242 6.2781 0.748691 6.24879 0.650146 6.23927L2.64193 1.92191C2.69385 1.92949 2.7463 1.93289 2.79878 1.93209C3.09741 1.92259 3.32618 1.77676 3.31042 1.60515L3.30015 1.5692L10.8214 0.41203C10.8547 0.46124 10.8996 0.501731 10.9522 0.530053C11.0659 0.587641 11.1914 0.618628 11.319 0.620627C11.4467 0.622627 11.5731 0.595585 11.6885 0.541585L17.2365 3.71397C17.1947 3.735 17.1598 3.76717 17.1356 3.80685C17.1114 3.84653 17.0989 3.89213 17.0995 3.93849C17.1073 3.98254 17.1257 4.02407 17.1533 4.05951C17.1809 4.09495 17.2167 4.12325 17.2577 4.14198C17.3286 4.18091 17.4058 4.20752 17.4858 4.22066L15.4865 8.55022C15.3155 8.52607 15.1411 8.55548 14.9878 8.63433C14.8508 8.71233 14.805 8.82154 14.8454 8.9226L7.3433 10.0757C7.31153 10.0186 7.26403 9.97151 7.20632 9.94005C7.08012 9.87365 6.93807 9.84247 6.79536 9.84984C6.66374 9.85099 6.53483 9.88706 6.42207 9.95429ZM19.5502 17.0798L19.4241 17.0737C19.1255 17.0825 18.8961 17.229 18.9125 17.3999L18.933 17.4678L11.4317 18.6209C11.402 18.5545 11.3503 18.5002 11.2851 18.4669C11.1589 18.4006 11.0168 18.3694 10.8741 18.3767C10.7307 18.3763 10.5907 18.4194 10.4728 18.5001L4.93303 15.3325C5.03782 15.2721 5.10083 15.188 5.09193 15.0965C5.08409 15.0525 5.06568 15.0111 5.03826 14.9757C5.01084 14.9402 4.97521 14.9119 4.9344 14.893C4.85826 14.8516 4.77518 14.8242 4.68919 14.8122L6.69878 10.463C6.75 10.4707 6.8018 10.4738 6.85358 10.4725C7.15221 10.4637 7.38166 10.3179 7.35837 10.1212L14.868 8.96805C14.9004 9.01244 14.9422 9.04925 14.9906 9.0759C15.1035 9.13238 15.2277 9.16332 15.3542 9.16649C15.4807 9.16966 15.6064 9.14497 15.7221 9.09421L21.3385 12.3046C21.2371 12.365 21.1762 12.447 21.1851 12.5379C21.1931 12.5818 21.2116 12.6232 21.239 12.6586C21.2664 12.694 21.3019 12.7224 21.3426 12.7414C21.399 12.7721 21.4594 12.795 21.5221 12.8092L19.5502 17.0798Z" fill="#B3DFEF"/>
</svg>
