<svg width="12" height="9" viewBox="0 0 12 9" fill="none" xmlns="http://www.w3.org/2000/svg">
<path d="M11.455 2.9385C11.4494 1.92665 10.727 0.704632 9.84229 0.208447C9.72589 0.142345 9.60238 0.0893561 9.47407 0.0504743C9.46646 0.0487998 9.45895 0.0467112 9.45157 0.0442135C9.17049 -0.0330326 8.91751 -0.0072815 8.71794 0.107544L7.32304 0.914102L0 5.14941L0.0196782 5.13827L0.0463819 5.12506L0.073789 5.11253L0.102603 5.1007L0.131408 5.09026L0.158815 5.08191L0.187629 5.07426L0.214333 5.06799H0.219248L0.244545 5.06382H0.252282C0.260633 5.06197 0.269077 5.06058 0.277579 5.05964H0.284605H0.308495H0.31763H0.345038H0.454666C0.463099 5.05964 0.472234 5.05964 0.480666 5.05964H0.4912H0.519311H0.526336H0.554447H0.563582H0.588176H0.600828L0.624718 5.06382H0.637371C0.645101 5.06382 0.652125 5.06381 0.659854 5.06799L0.676016 5.07217L0.693584 5.07635L0.713965 5.08121L0.73294 5.08678L0.751915 5.09235L0.772288 5.09861L0.791263 5.10418L0.80672 5.10975L0.830619 5.1181H0.839051L0.909323 5.14524L0.925484 5.1529L0.950078 5.16334C1.00487 5.18746 1.05835 5.2144 1.1103 5.24406C1.99502 5.73954 2.71742 6.96226 2.72655 7.97411C2.72743 8.06183 2.72203 8.14951 2.71039 8.23647C2.70618 8.26639 2.70196 8.29562 2.69633 8.32485C2.6798 8.412 2.65462 8.49732 2.62115 8.57956L2.60709 8.61087L2.59374 8.63801V8.64358C2.5846 8.66306 2.57406 8.68116 2.56352 8.69925C2.56352 8.69925 2.56352 8.69925 2.56352 8.70482C2.56352 8.71038 2.55439 8.71944 2.54947 8.72709C2.54845 8.72926 2.54727 8.73135 2.54595 8.73335L2.5319 8.75423C2.53026 8.75694 2.52838 8.75951 2.52628 8.76189C2.522 8.76888 2.5173 8.77562 2.51222 8.78207C2.51042 8.78427 2.50878 8.7866 2.50731 8.78903L2.49255 8.80782L2.48692 8.81478L2.47358 8.83078L2.46514 8.84052L2.45249 8.85514L2.44406 8.86418C2.43914 8.86836 2.43563 8.87323 2.43071 8.87741L2.42017 8.88784C2.41676 8.89145 2.41299 8.89472 2.40892 8.89759L2.39697 8.90942C2.39327 8.91347 2.38902 8.91698 2.38433 8.91986C2.38092 8.92347 2.37715 8.92673 2.37308 8.9296L2.36114 8.94003C2.35648 8.94295 2.35223 8.94646 2.34849 8.95048L2.33654 8.95813L2.32249 8.96857L2.31265 8.97483L2.29579 8.98666L2.28806 8.99084C2.28384 8.99084 2.27821 8.9964 2.274 8.99988L10.9877 3.9615C11.2028 3.83832 11.3559 3.60936 11.4213 3.29342C11.4445 3.17652 11.4558 3.05763 11.455 2.9385Z" fill="#2788BF"/>
</svg>
