<svg width="4" height="4" viewBox="0 0 4 4" fill="none" xmlns="http://www.w3.org/2000/svg">
<path d="M2.71388 3.86901L2.72912 3.85873L2.7402 3.85187L2.75474 3.84089L2.76512 3.83335L2.78037 3.82101L2.78937 3.81415L2.80599 3.80044C2.80796 3.79803 2.81029 3.79595 2.81291 3.79427L2.83022 3.77712L2.83576 3.773L2.85307 3.75517L2.85793 3.75037L2.87662 3.7298L2.89531 3.70786L2.91193 3.68659V3.6818C2.91817 3.67425 2.9244 3.66534 2.92994 3.65711L2.94656 3.63242L2.96319 3.60499C2.96803 3.59539 2.97357 3.58578 2.97911 3.57618C2.9895 3.55698 2.99988 3.53641 3.00888 3.51652C3.01373 3.50623 3.01789 3.49595 3.02205 3.48566C3.03624 3.45326 3.04849 3.42005 3.05874 3.38622V3.38142C3.05874 3.37045 3.06498 3.35948 3.06844 3.34851C3.06876 3.34739 3.06876 3.34619 3.06844 3.34507C3.0719 3.33547 3.07398 3.32519 3.07675 3.31559V3.30667C3.07675 3.29502 3.08298 3.28198 3.08575 3.26964C3.09998 3.20399 3.11039 3.13759 3.11692 3.07076V3.06253C3.11692 3.0543 3.11692 3.04607 3.11692 3.03716C3.11692 3.02824 3.11692 3.02481 3.11692 3.01864V2.99189V2.97406C3.11692 2.96583 3.11692 2.95829 3.11692 2.95006C3.11692 2.92812 3.11692 2.90548 3.11692 2.88148C3.11068 1.88435 2.39949 0.680114 1.52418 0.19115C1.46155 0.155961 1.39706 0.124139 1.33097 0.0958247C1.27775 0.0737025 1.22344 0.054249 1.16824 0.0375346C1.14331 0.0306768 1.11907 0.0238169 1.09899 0.0183307H1.09206L1.0609 0.010788H1.05675L1.02489 0.00530476H1.0152L0.988884 0.000499583H0.976415H0.952873H0.968106H0.943177H0.933481H0.908552H0.839303H0.82199H0.790138H0.772133H0.758971H0.739579C0.734987 -0.000166528 0.730325 -0.000166528 0.725733 0.000499583H0.707034H0.694574C0.688235 0.000975308 0.681965 0.00212824 0.675875 0.00393185H0.662713L0.644708 0.00804221H0.632248L0.614935 0.0128474L0.599702 0.0176442L0.585154 0.0217629L0.568535 0.0279326L0.556075 0.0327378L0.541527 0.0389075L0.526294 0.0443908L0.513141 0.0498824L0.498592 0.0574251L0.486132 0.0629083L0.470202 0.0711374L0.460506 0.0766207C0.213978 0.213778 0.0450121 0.482605 0 0.864587C0.231986 0.698627 0.569917 0.702061 0.946634 0.913283C1.65229 1.30898 2.22775 2.28485 2.23329 3.09065C2.23329 3.50212 2.08856 3.79015 1.85034 3.92182C2.07028 4.01159 2.31455 4.02441 2.54284 3.95817C2.59318 3.94163 2.64167 3.92002 2.68757 3.8937L2.70211 3.8841L2.71388 3.86901Z" fill="#E4EEFA"/>
</svg>
