<svg width="3" height="4" viewBox="0 0 3 4" fill="none" xmlns="http://www.w3.org/2000/svg">
<path d="M2.57232 0.0583722L2.55861 0.0515863L2.5449 0.0454798L2.52914 0.0386856L2.5168 0.0332585L2.50035 0.0278314L2.48733 0.022396L2.47088 0.0176484L2.45854 0.0135719L2.44003 0.00814477H2.4277L2.40988 0.00406824H2.39685L2.37698 0H2.3667H2.34545H2.33449H2.31118H2.30295H2.27965H2.27211H2.24744H2.17342H2.14394H2.13503H2.10419H2.10008H2.06924H2.06512C1.86163 0.0334682 1.66714 0.107597 1.4935 0.217879L1.45375 0.242313C0.873217 0.6102 0.381782 1.30185 0.147376 2.01455C0.0965063 2.16808 0.0579997 2.32537 0.0322249 2.48493C0.0322249 2.49444 0.0322286 2.50462 0.0274308 2.51412C0.0212622 2.55417 0.0164664 2.59421 0.012354 2.63426C0.00385745 2.71566 -0.000264443 2.79746 1.31359e-05 2.8793C1.31359e-05 2.89491 1.31359e-05 2.91051 1.31359e-05 2.92545C1.31359e-05 2.94038 1.31359e-05 2.96685 1.31359e-05 2.98722C1.31359e-05 3.00758 1.84906e-05 3.03337 0.00550168 3.05509L0.00960973 3.09582C0.0144075 3.1379 0.0205775 3.17795 0.0281168 3.21664C0.0281168 3.2275 0.0322276 3.23836 0.0349692 3.24922C0.0352202 3.25124 0.0352202 3.25329 0.0349692 3.25532L0.0411354 3.28044C0.0411354 3.28519 0.0411354 3.28994 0.0411354 3.2947C0.0411354 3.29945 0.0445678 3.30827 0.046624 3.31505C0.0486802 3.32184 0.0466203 3.32591 0.0514181 3.33202C0.0562159 3.33813 0.0562142 3.34831 0.0582704 3.35646C0.0598189 3.35994 0.0609718 3.36358 0.0617007 3.36732C0.0658131 3.37818 0.0692425 3.38836 0.0726695 3.39854C0.0726695 3.40736 0.0788391 3.41619 0.0822661 3.42433C0.0856931 3.43248 0.0822661 3.43112 0.0822661 3.43384C0.0822661 3.43655 0.0897994 3.45149 0.0932264 3.46031V3.46642C0.0932264 3.47456 0.100081 3.48203 0.102823 3.4895L0.107625 3.49967L0.117222 3.52004L0.123388 3.5309C0.123388 3.53769 0.129558 3.54379 0.132985 3.55058L0.139151 3.56212L0.15012 3.58181C0.15012 3.58181 0.154229 3.58792 0.1556 3.59131C0.158853 3.59722 0.162519 3.60289 0.166569 3.60828L0.173421 3.6205L0.183704 3.63611L0.191928 3.64765L0.203575 3.66462L0.210435 3.67412L0.222082 3.68837L0.230306 3.69991C0.234325 3.7039 0.237996 3.70821 0.241275 3.71281L0.251558 3.72435L0.26184 3.73589L0.272801 3.7481L0.284455 3.76032L0.294052 3.76983L0.307071 3.78204C0.307071 3.78543 0.313926 3.78815 0.316667 3.79154L0.329694 3.80241L0.339977 3.81191L0.352995 3.82208L0.36465 3.83091L0.377669 3.84109L0.388637 3.84924L0.402342 3.85874L0.413997 3.86621L0.42976 3.87639L0.439356 3.88249L0.456491 3.892C0.717628 4.03793 1.06581 4.02775 1.44963 3.83091C1.03839 3.82616 0.747102 3.49967 0.732023 2.93155C0.709405 2.11161 1.268 1.09891 1.97876 0.669934C2.38589 0.424224 2.75463 0.423547 3.00001 0.621066C3.00001 0.613599 2.99521 0.606128 2.99315 0.599341C2.93095 0.377072 2.78333 0.18776 2.58191 0.0719441C2.57756 0.0690793 2.57297 0.0665827 2.5682 0.0644787L2.57232 0.0583722Z" fill="#2788BF"/>
</svg>
