<svg width="5" height="6" viewBox="0 0 5 6" fill="none" xmlns="http://www.w3.org/2000/svg">
<path d="M0.224614 3.47147C0.289976 3.53019 0.361455 3.58186 0.437848 3.62561C0.516606 3.67031 0.598841 3.7087 0.68377 3.74044C0.869568 3.81304 1.06575 3.85621 1.26511 3.86837C1.65422 3.88764 2.03322 3.76896 2.34062 3.64796C2.50405 3.58476 2.65892 3.51386 2.80756 3.44064C2.93363 3.37822 3.05348 3.31194 3.18111 3.25028C3.31845 3.18313 3.46076 3.12644 3.60681 3.08073C3.75914 3.02939 3.91727 2.99677 4.07764 2.98362C4.15188 2.97882 4.22642 2.98114 4.30021 2.99056C4.36744 2.99908 4.43317 3.01671 4.49554 3.04297L4.56092 3.07611C4.65265 3.12247 4.72327 3.20149 4.75859 3.29729C4.82474 3.49999 4.64886 3.71963 4.43873 3.8861C4.29097 3.99168 4.13481 4.08524 3.9718 4.16586C3.7487 4.28814 3.52379 4.40966 3.29707 4.5304C2.95154 4.71485 2.60315 4.89699 2.2519 5.07682C1.88847 4.88569 1.32348 4.89031 0.972494 5.09223C0.621512 5.29415 0.614507 5.63172 0.977163 5.84288C1.33982 6.05405 1.92505 6.04943 2.28459 5.84288C2.60289 5.65946 2.63791 5.37585 2.39199 5.17007C2.63246 5.04599 2.8706 4.92268 3.10796 4.79706C3.34532 4.67143 3.56167 4.5566 3.78658 4.4356C4.01149 4.3146 4.22316 4.2044 4.42628 4.08571C4.6901 3.92618 4.90723 3.71732 4.96637 3.4969C4.98343 3.44261 4.98781 3.3852 4.97918 3.32899C4.97055 3.27279 4.94914 3.21926 4.91657 3.17244C4.86158 3.09631 4.79004 3.03337 4.70722 2.98825C4.65175 2.95601 4.59274 2.93016 4.53134 2.91118C4.19982 2.80713 3.80837 2.87495 3.50019 2.97283C3.21599 3.07306 2.94039 3.19573 2.67604 3.33968C2.376 3.49715 2.05732 3.61701 1.72738 3.69651C1.64191 3.7153 1.55536 3.72894 1.46823 3.73736C1.21055 3.75995 0.951515 3.7128 0.71879 3.60095C0.673652 3.58091 0.631629 3.55933 0.591939 3.53698C0.342905 3.3944 0.195041 3.19865 0.226948 2.99364C0.250295 2.85184 0.36236 2.71311 0.48999 2.59442C0.652888 2.45146 0.834888 2.33139 1.03086 2.23759C1.12191 2.19135 1.2153 2.14742 1.3118 2.10581C1.73065 2.31604 2.19775 2.41408 2.6667 2.39019C3.2095 2.35964 3.73976 2.21655 4.22316 1.97016C4.33315 1.91878 4.43977 1.86278 4.54302 1.80215C4.65231 1.74972 4.75519 1.68508 4.84964 1.60948C4.86691 1.59546 4.88082 1.57781 4.89037 1.55782C4.89992 1.53783 4.90487 1.51599 4.90487 1.49388C4.90487 1.47176 4.89992 1.44992 4.89037 1.42993C4.88082 1.40994 4.86691 1.3923 4.84964 1.37827C4.79594 1.31816 4.70956 1.26884 4.64808 1.21103L4.60138 1.12395L4.63563 1.09389L4.6582 1.03686L4.62629 0.982137L4.61306 0.968265L4.57726 0.942835C4.5348 0.919675 4.48784 0.905747 4.43951 0.901986H4.35313H4.32122L4.28776 0.909691C4.25142 0.918416 4.21793 0.936193 4.19048 0.961331L4.16168 0.979827L4.15312 1.02838L4.1827 1.11624L4.23562 1.15478C4.27055 1.17217 4.30866 1.18239 4.34768 1.18483L4.39982 1.19408C4.43701 1.24951 4.48456 1.29738 4.5399 1.33511C4.59672 1.3775 4.67765 1.43377 4.68855 1.47769C4.70567 1.54629 4.57882 1.60177 4.50099 1.64801C4.40397 1.70453 4.30436 1.75925 4.20215 1.81217C3.77881 2.04358 3.31469 2.19269 2.8348 2.25147C2.35871 2.30538 1.87704 2.22159 1.44799 2.01024L1.42465 1.99637L1.38262 1.97325C1.04331 1.76516 0.89 1.46922 0.976384 1.18869C1.06977 0.886575 1.38651 0.62608 1.73672 0.40258C1.82855 0.344008 1.92505 0.286203 2.02311 0.230713C2.10093 0.186013 2.19899 0.112799 2.31805 0.122048C2.40503 0.138187 2.48918 0.166742 2.56787 0.206822C2.64878 0.24249 2.73197 0.272873 2.8169 0.297767L2.83013 0.317035L2.89395 0.387937L2.94998 0.411828C3.00067 0.425373 3.05317 0.431089 3.10562 0.428781L3.18345 0.423386L3.21613 0.406433L3.30641 0.35094L3.31886 0.331673V0.313177V0.263085L3.24726 0.186016L3.20213 0.164435L3.17878 0.157501L3.08383 0.139L2.98344 0.152106L2.91574 0.176768C2.86894 0.17233 2.82291 0.161967 2.77877 0.145939C2.67838 0.111258 2.59199 0.0611628 2.48615 0.0303351C2.3578 -0.0101117 2.21994 -0.0101117 2.09159 0.0303351C1.97377 0.0777255 1.86113 0.136857 1.75539 0.206822C1.65578 0.266165 1.55772 0.327821 1.46511 0.391018C1.09001 0.646117 0.775601 0.945144 0.73669 1.28579C0.707117 1.54937 0.865097 1.81063 1.15693 2.01101C0.732798 2.19829 0.341348 2.42025 0.134339 2.70926C0.041729 2.8395 -0.0213076 2.97591 0.00670869 3.11695C0.0357914 3.25651 0.112792 3.38179 0.224614 3.47147Z" fill="#2788BF"/>
</svg>
