<svg width="6" height="2" viewBox="0 0 6 2" fill="none" xmlns="http://www.w3.org/2000/svg">
<path d="M0.000680876 0.2446C0.000680876 0.252982 0.000680876 0.262124 0.000680876 0.270506V0.286514C0.000680876 0.294896 0.000680876 0.304037 0.000680876 0.311657C0.000680876 0.319277 0.000680876 0.323085 0.000680876 0.328419V0.354334C0.00109523 0.359914 0.00109523 0.365515 0.000680876 0.371096C0.000680876 0.378716 0.000684633 0.387094 0.00453193 0.395476C0.00837923 0.403858 0.00453193 0.406904 0.00453193 0.413C0.00562731 0.420953 0.00716373 0.428844 0.0091438 0.436627C0.0091438 0.442723 0.0091438 0.448817 0.0091438 0.454152C0.0091438 0.459486 0.00913967 0.472438 0.0145259 0.48082C0.0161693 0.485804 0.0174587 0.490902 0.0183769 0.496065C0.0183769 0.505209 0.0229918 0.514352 0.0260697 0.523496C0.0291475 0.532641 0.0260697 0.532636 0.0260697 0.53797C0.0260697 0.543304 0.0314547 0.556266 0.0345326 0.564648C0.0376104 0.57303 0.0345378 0.574549 0.0399241 0.579121C0.0453103 0.583693 0.0453091 0.596645 0.048387 0.605027L0.0545393 0.621035L0.0637724 0.645415L0.0714745 0.662177C0.0714745 0.670559 0.0791609 0.67971 0.0822387 0.688092C0.0853194 0.692792 0.0876616 0.697928 0.0891706 0.703328C0.0937332 0.711221 0.0978367 0.719358 0.101475 0.727708L0.109948 0.743717C0.1138 0.75249 0.11843 0.760902 0.123793 0.76886L0.131485 0.784859C0.136975 0.792874 0.141866 0.801285 0.14611 0.810011L0.155343 0.825247C0.161499 0.833629 0.166883 0.842771 0.172269 0.851915C0.177655 0.861059 0.177654 0.860301 0.180732 0.864873L0.197658 0.890016L0.208431 0.904499C0.213817 0.912881 0.219972 0.920496 0.226127 0.928879L0.237671 0.944124C0.242622 0.95155 0.248024 0.958668 0.253836 0.965453L0.268451 0.98375L0.284607 1.0028C0.289993 1.00966 0.295385 1.01575 0.300002 1.0226L0.320008 1.04394C0.324625 1.05004 0.330007 1.05537 0.334624 1.0607L0.35309 1.07975L0.370786 1.0988L0.390022 1.11785L0.408498 1.13615C0.414537 1.14238 0.420961 1.14823 0.427735 1.15368L0.447732 1.17349L0.466968 1.19025L0.489286 1.21006L0.508522 1.22606L0.53238 1.24664L0.558539 1.26721L0.577005 1.28169L0.601624 1.30074L0.623941 1.31826L0.632404 1.3236C0.645485 1.33274 0.658567 1.34341 0.672417 1.35179L0.704738 1.37465L0.721664 1.38608L0.759367 1.41047L0.773991 1.41961L0.788607 1.42876C0.818616 1.44781 0.850161 1.46686 0.882478 1.48515C2.07514 2.17095 4.00418 2.17095 5.19145 1.48515L5.24609 1.45314L5.32304 1.40437L5.34996 1.38684L5.36458 1.37694L5.39921 1.35332L5.41691 1.3396L5.44692 1.31826L5.47231 1.29921L5.49231 1.28398L5.5154 1.26569L5.53771 1.2474L5.55079 1.23597L5.57926 1.21159L5.59773 1.19558L5.62005 1.17577L5.63774 1.15901L5.65929 1.13843L5.67544 1.12243C5.6816 1.11557 5.6893 1.10871 5.69545 1.10109C5.70161 1.09347 5.71083 1.08586 5.71853 1.07747L5.73084 1.06452C5.737 1.0569 5.74392 1.05004 5.75008 1.04318L5.76547 1.02565L5.78163 1.00584L5.79702 0.987554L5.81548 0.963174L5.82703 0.948691L5.84472 0.925074L5.8555 0.909828C5.86165 0.900684 5.86781 0.892304 5.87319 0.88316L5.88242 0.870966L5.89628 0.847348C5.8478 0.824488 5.79933 0.800099 5.75085 0.775715C5.59578 0.938539 5.41679 1.07726 5.21992 1.1872C5.14297 1.23063 5.06603 1.27102 4.98908 1.30912L4.99832 1.34036L4.93907 1.3556V1.36246L4.9106 1.34646C3.71947 1.86462 2.0105 1.81204 0.918641 1.1872C0.343085 0.858775 0.0445416 0.430532 0.0214578 0C0.00464782 0.0804137 -0.00232898 0.162536 0.000680876 0.2446Z" fill="#E4EEFA"/>
</svg>
