<svg width="28" height="27" viewBox="0 0 28 27" fill="none" xmlns="http://www.w3.org/2000/svg">
<path d="M1.27668 11.5356C1.48082 12.0215 1.71353 12.5093 1.96938 12.9952C2.05715 13.1616 2.14765 13.3287 2.24155 13.4952L2.28306 13.5188C-0.350936 8.44533 -0.183548 3.19941 2.77502 1.52961C4.33528 0.648882 6.37593 0.929204 8.41385 2.09429C10.4518 3.25938 12.4707 5.29239 14.018 7.93456C15.5755 7.06798 17.6073 7.351 19.6371 8.51137C21.6669 9.67174 23.7109 11.727 25.2603 14.3853C28.2467 19.5066 28.3413 25.018 25.557 26.9911L25.5719 26.9998L25.5896 26.9904C28.7877 25.1609 28.7959 19.2593 25.6059 13.7876C24.0083 11.0464 21.9098 8.9359 19.8079 7.73173C17.706 6.52756 15.6204 6.24387 14.0153 7.13672C12.4196 4.41301 10.3293 2.31195 8.23762 1.11586C6.13573 -0.0856148 4.03248 -0.374697 2.42391 0.53298C0.565618 1.58217 -0.224374 3.99792 0.0546082 6.90896C0.194099 8.3638 0.601682 9.94196 1.27668 11.5356Z" fill="#EF7F7F"/>
</svg>
