<svg width="26" height="15" viewBox="0 0 26 15" fill="none" xmlns="http://www.w3.org/2000/svg">
<path d="M10.125 14.7211C10.2146 14.7672 10.289 14.8379 10.3394 14.9246L21.9252 13.1421C21.8636 12.9867 21.9369 12.8171 22.1472 12.6963C22.3837 12.5745 22.6529 12.5294 22.9167 12.5673L26 5.88028C25.8777 5.86168 25.7595 5.82243 25.6506 5.76425C25.5135 5.68418 25.419 5.57493 25.4066 5.45212C25.3943 5.31641 25.4752 5.19698 25.6197 5.10538L17.0488 0.200172C16.8904 0.277253 16.7168 0.318729 16.5404 0.321632C16.3216 0.332349 16.1041 0.284284 15.9107 0.182529C15.8293 0.139177 15.76 0.0764501 15.7092 0L4.09329 1.79L4.10836 1.84565C4.13235 2.11096 3.77948 2.33623 3.31766 2.3498C3.237 2.35111 3.15635 2.34612 3.07648 2.33488L0 9.00295C0.152496 9.01902 0.300198 9.06517 0.434405 9.13866C0.575553 9.2194 0.666682 9.32865 0.67833 9.45146C0.693404 9.61228 0.567333 9.75749 0.363833 9.85113L8.91631 14.7407C9.09078 14.639 9.28938 14.5849 9.49186 14.584C9.71149 14.5726 9.93018 14.6199 10.125 14.7211Z" fill="#9FD1FF"/>
</svg>
