<svg width="16" height="8" viewBox="0 0 16 8" fill="none" xmlns="http://www.w3.org/2000/svg">
<path d="M0.0659394 7.28329H0.0727358L0.108087 7.26714H0.112842L0.149555 7.25165H0.154318L0.193063 7.23752C0.2053 7.23348 0.21822 7.22876 0.231136 7.2254H0.236572L0.273956 7.21463H0.280761L0.320868 7.20588H0.324942L0.363696 7.19847H0.371173C0.383987 7.19602 0.396917 7.19422 0.409918 7.19308C0.412623 7.1927 0.415379 7.1927 0.418084 7.19308L0.455468 7.18905H0.464987H0.504412H0.51257C0.525486 7.18905 0.538407 7.18905 0.551324 7.18905H0.611147H0.647851H0.661452H0.698164H0.711757H0.745748H0.764104L0.795372 7.19308H0.81509L0.844997 7.1978H0.868117C0.877634 7.1978 0.886465 7.20116 0.895302 7.20385L0.921135 7.20789L0.951732 7.21463L0.974162 7.22001L0.999995 7.22675L1.02991 7.23415L1.0435 7.23819C1.0571 7.23819 1.07069 7.24492 1.08429 7.24963L1.09924 7.25435L1.14004 7.26646L10.9633 1.58582C11.3032 1.38924 11.779 1.41348 12.2991 1.70633C13.0469 2.12575 13.6988 2.98545 14.0143 3.87612L16 2.7579C15.6057 1.73864 14.8559 0.777956 13.9979 0.297276C13.3718 -0.0534727 12.8076 -0.0830967 12.3983 0.151858L11.1978 0.843258L4.03466 4.98559L3.95445 5.03204L0 7.32099C0.00883751 7.31493 0.0183565 7.3109 0.027194 7.30551H0.031949L0.0659394 7.28329Z" fill="#98BCDD"/>
</svg>
