<svg width="21" height="18" viewBox="0 0 21 18" fill="none" xmlns="http://www.w3.org/2000/svg">
<path d="M17.9057 10.403L16.8904 13.7316C16.8745 13.7909 16.8365 13.8419 16.7839 13.8743L16.1576 14.2368L16.1868 14.2106C16.1075 14.2795 15.9871 14.2795 15.8577 14.2106C15.7483 14.1399 15.6548 14.0477 15.583 13.9397C15.5111 13.8317 15.4625 13.7102 15.4401 13.5828L14.605 8.06186L13.3524 14.4173C13.3477 14.4536 13.3351 14.4883 13.3153 14.5191C13.2956 14.55 13.2693 14.5762 13.2383 14.5958L12.6119 14.9583L12.6516 14.9204C12.5737 14.9976 12.4519 15.0086 12.3134 14.9294C12.2049 14.8605 12.1119 14.7702 12.0401 14.6642C11.9683 14.5583 11.9192 14.4388 11.8958 14.3133L9.58822 0.581656L8.54435 3.82073C8.52782 3.87781 8.49067 3.92687 8.43997 3.95857L7.81365 4.32107L7.84149 4.29626C7.76285 4.36517 7.64385 4.36517 7.51163 4.29143L0 0L10.4908 17.9948V17.9996L11.8089 17.2553L14.0455 15.9928L14.9892 15.4601L15.6023 15.1155L16.5466 14.5827L17.1597 14.2382L18.1034 13.7054L18.7171 13.3609L19.6608 12.8274L20.9044 12.1259L17.9057 10.403Z" fill="#EB5C5C"/>
</svg>
