<svg width="70" height="39" viewBox="0 0 70 39" fill="none" xmlns="http://www.w3.org/2000/svg">
<path d="M63.3142 21.0907C63.3983 21.138 63.4682 21.2066 63.5166 21.2895C63.5651 21.3724 63.5903 21.4666 63.5898 21.5624C63.5907 21.6578 63.5659 21.7518 63.5181 21.8347C63.4703 21.9175 63.4011 21.9864 63.3176 22.0341L45.9949 32.006L44.9062 32.6313L42.8241 33.8287C42.5825 33.9671 42.3083 34.04 42.0291 34.04C41.7499 34.04 41.4757 33.9671 41.234 33.8287L4.01518 12.5763C3.93221 12.528 3.86342 12.459 3.81563 12.3763C3.76783 12.2936 3.74269 12.1999 3.74269 12.1046C3.74269 12.0093 3.76783 11.9156 3.81563 11.8329C3.86342 11.7501 3.93221 11.6812 4.01518 11.6329L22.7423 0.855758L21.2454 0L7.93371 7.66072L7.83777 7.71597L0.316437 12.0446C0.237872 12.089 0.169984 12.1498 0.11747 12.2228C0.0649561 12.2957 0.0290714 12.3791 0.0122928 12.4671C0.00481616 12.5055 0.000718812 12.5445 4.57395e-05 12.5837C-0.00131037 12.6951 0.0275109 12.8049 0.0835115 12.9016C0.139512 12.9983 0.220647 13.0784 0.318481 13.1335L44.2734 38.2241C44.5519 38.3828 44.8677 38.466 45.1891 38.4654C45.5104 38.4648 45.8259 38.3804 46.1038 38.2207L69.6843 24.6499C69.781 24.5948 69.8611 24.5154 69.9166 24.4196C69.9721 24.3238 70.0009 24.2151 70 24.1047C69.9999 23.9951 69.9704 23.8875 69.9146 23.7928C69.8587 23.6981 69.7786 23.6197 69.6823 23.5657L61.7847 19.0578L61.6901 19.0039L47.9688 11.1666L46.9556 11.7502L63.3142 21.0907ZM57.8369 29.8504C57.0081 30.3268 55.6595 30.3268 54.8281 29.8504C54.3735 29.591 54.1653 29.244 54.2041 28.9037C54.2368 28.6194 54.4409 28.3411 54.8165 28.1241C55.6446 27.6477 56.9938 27.6477 57.826 28.1241C58.2057 28.3411 58.4132 28.6194 58.4486 28.9037C58.4921 29.244 58.288 29.5917 57.8369 29.8511V29.8504Z" fill="#035B8C"/>
</svg>
