<svg width="6" height="8" viewBox="0 0 6 8" fill="none" xmlns="http://www.w3.org/2000/svg">
<path d="M5.18842 7.41936L5.20342 7.40855L5.23614 7.38694L5.25592 7.37277L5.28321 7.3525L5.30638 7.33428L5.32889 7.31604L5.35684 7.29308L5.3732 7.27823L5.4032 7.25121C5.40729 7.24649 5.41276 7.24176 5.41754 7.23704L5.44685 7.20732L5.45912 7.19517L5.49117 7.16073C5.49117 7.15668 5.49731 7.15398 5.50004 7.1506C5.50277 7.14722 5.52118 7.12561 5.5314 7.11346L5.54026 7.10401L5.56959 7.06551C5.57292 7.06198 5.57588 7.05814 5.57845 7.05404C5.588 7.04188 5.59687 7.02905 5.60642 7.01622C5.60976 7.01222 5.61272 7.00792 5.61527 7.00339C5.62414 6.99056 5.63368 6.97706 5.64254 6.96288L5.65073 6.9514L5.6746 6.91223L5.68483 6.89602C5.69233 6.88319 5.69983 6.87036 5.70665 6.85686L5.71756 6.8393L5.73801 6.79946L5.74755 6.78123L5.76597 6.74206C5.76979 6.73529 5.77322 6.7283 5.7762 6.72113L5.79462 6.67994C5.79462 6.67251 5.80075 6.66576 5.80415 6.659C5.80756 6.65225 5.8137 6.63334 5.81915 6.62119C5.82461 6.60903 5.82597 6.60295 5.83006 6.59418C5.83415 6.5854 5.83962 6.56919 5.84371 6.55636L5.85393 6.52868C5.85734 6.5172 5.86143 6.50572 5.86552 6.49424C5.86961 6.48276 5.87371 6.47128 5.87712 6.4598L5.88529 6.43144L5.89756 6.39024C5.89756 6.38146 5.90234 6.37134 5.90507 6.36188L5.91666 6.31799C5.91666 6.31191 5.91666 6.30584 5.92144 6.29908L5.93371 6.24506C5.93409 6.24012 5.93409 6.23515 5.93371 6.2302C5.93848 6.21062 5.94258 6.19037 5.94599 6.17011C5.95145 6.14445 5.95553 6.11946 5.95963 6.0938C5.95924 6.08863 5.95924 6.08344 5.95963 6.07827C5.96303 6.05733 5.96575 6.0364 5.96848 6.01547C5.99075 5.84825 6.00123 5.6797 5.99985 5.51104C5.98825 3.61218 4.6361 1.31896 2.97231 0.387759C2.92117 0.358722 2.86935 0.331035 2.81889 0.306049L2.79707 0.295247C2.75274 0.273638 2.70911 0.252703 2.66547 0.233795L2.64774 0.225692L2.58979 0.200707L2.56865 0.192604C2.5516 0.185176 2.53387 0.177749 2.51682 0.171671L2.47113 0.154113L2.44249 0.143983L2.39954 0.129129L2.36884 0.118998L2.32658 0.105496L2.29658 0.096041L2.2468 0.0818589L2.22498 0.0757837L2.16293 0.0602497H2.15406C2.13428 0.0548475 2.11384 0.0507985 2.09406 0.0460716H2.08382C1.97148 0.022794 1.8575 0.00811807 1.74288 0.00217733C1.59594 -0.00507631 1.44867 0.00581042 1.30444 0.034589C1.2658 0.0426923 1.22762 0.0521491 1.18989 0.0629534C1.17148 0.0676803 1.15375 0.0737577 1.13602 0.0798352L1.08556 0.0973929H1.07942L1.03237 0.116298L1.02418 0.119674L0.980549 0.139259L0.970328 0.143983L0.928043 0.16492H0.923266H0.917822C0.904184 0.171673 0.891223 0.179773 0.877585 0.187201C0.374359 0.472841 0.0477315 1.06506 0 1.89429L1.20899 1.19471C1.61811 0.959039 2.18542 0.992126 2.81343 1.34057C3.67396 1.82271 4.42608 2.78632 4.82157 3.80868C4.87749 3.95319 4.92589 4.09905 4.96612 4.24423C4.97294 4.26719 4.97908 4.29083 4.9859 4.31176C5.01454 4.41845 5.03841 4.52582 5.0575 4.63251C5.06296 4.6629 5.06841 4.69329 5.07318 4.72367C5.09991 4.89258 5.11403 5.06321 5.11545 5.23418C5.12349 5.52889 5.07226 5.82225 4.96476 6.09718C4.86655 6.35299 4.68519 6.56917 4.44925 6.71167L3.28052 7.38694C4.00672 7.72458 4.65724 7.72458 5.14069 7.44029L5.15023 7.43489L5.18842 7.41936Z" fill="#E4EEFA"/>
</svg>
