<svg width="29" height="18" viewBox="0 0 29 18" fill="none" xmlns="http://www.w3.org/2000/svg">
<path d="M3.07353 2.52701L4.13164 3.13194H4.13647L11.5867 7.38828C11.7178 7.46347 11.8359 7.45663 11.9138 7.39306L11.9346 7.37393C11.9408 7.36795 11.9464 7.3613 11.9511 7.3541C11.9682 7.33213 11.9813 7.30738 11.9898 7.28096L13.473 2.67739L13.647 3.71499L15.9357 17.3343C15.9589 17.4588 16.0076 17.5773 16.0788 17.6824C16.15 17.7875 16.2423 17.877 16.3499 17.9454C16.4879 18.024 16.608 18.0138 16.6853 17.9365L16.7095 17.9119C16.7343 17.8778 16.7511 17.8385 16.7585 17.7971L18.3839 9.54482L18.6248 11.134L19.4531 16.6098C19.4753 16.7362 19.5235 16.8567 19.5948 16.9638C19.666 17.0709 19.7588 17.1624 19.8672 17.2325C19.9956 17.3063 20.115 17.3008 20.1937 17.2325L20.2158 17.2133L20.2241 17.2031C20.2447 17.1775 20.2601 17.1483 20.2696 17.117L21.4637 13.2051L21.902 13.456L24.8748 15.1552L28.37 17.1539C28.497 17.2263 28.6081 17.2256 28.6855 17.1696C28.6908 17.1661 28.6959 17.1622 28.7006 17.158L28.7193 17.1429L28.7414 17.1074L28.7572 17.0835L28.7717 17.0411L28.7821 17.0083L28.7904 16.9167C28.7893 16.8107 28.7658 16.7062 28.7213 16.6098C28.6517 16.4411 28.5312 16.2979 28.3762 16.1997L21.1565 12.0711C21.1233 12.052 21.0875 12.0375 21.0503 12.0281L21.0358 12.0247L21.0116 12.0192C20.9781 12.0126 20.9436 12.0126 20.9101 12.0192L20.8943 12.0253C20.8606 12.038 20.8304 12.0586 20.8064 12.0852C20.7824 12.1119 20.7652 12.1438 20.7562 12.1785L20.4187 13.2844L19.9646 14.7718L18.8195 7.19894C18.7976 7.07313 18.75 6.9531 18.6794 6.84623C18.6089 6.73937 18.5171 6.64795 18.4095 6.57761C18.3683 6.55677 18.3244 6.54181 18.279 6.53318L18.2583 6.52908C18.2313 6.52494 18.2039 6.52494 18.1769 6.52908L18.152 6.53455L18.1334 6.54207H18.1293C18.0932 6.55833 18.062 6.58345 18.0386 6.61504C18.0152 6.64662 18.0003 6.68363 17.9954 6.72252L16.7157 13.2161L16.3464 15.0923L13.9707 0.951473C13.9293 0.732523 13.811 0.535164 13.6366 0.394396C13.6125 0.374582 13.5872 0.356318 13.5607 0.339715L13.5296 0.323993C13.5013 0.310946 13.4717 0.300865 13.4413 0.293917L13.4178 0.28845H13.3177L13.3026 0.293917C13.2688 0.306179 13.2386 0.326411 13.2146 0.352854C13.1905 0.379298 13.1733 0.411154 13.1645 0.445661L11.488 5.64049L11.39 5.9433L11.2927 6.24542L3.31235 1.68559H3.30752L2.39988 1.16679L1.46326 0.65072L0.422413 0.05605L0.337509 0.0170883L0.320945 0.0136714L0.258141 0H0.231221H0.186355L0.158745 0.0102525L0.123543 0.0232398C0.0483095 0.0663022 0.00138044 0.159946 0 0.2905C0.00816612 0.434258 0.0504151 0.574089 0.123324 0.698662C0.196233 0.823235 0.297749 0.929047 0.419649 1.00752L0.626715 1.12509L1.55505 1.65551L3.07353 2.52701Z" fill="#E4E3F3"/>
</svg>
