<svg width="13" height="8" viewBox="0 0 13 8" fill="none" xmlns="http://www.w3.org/2000/svg">
<path d="M12.4827 0.616696C12.7195 0.473683 12.9015 0.256726 13 0L0.741809 6.90499L0.694595 6.82231L0.621368 6.86501C0.573529 7.15341 0.443677 7.42233 0.247039 7.64028L0.218303 7.66875L0.210776 7.67552L0.185457 7.69924L0.173135 7.71008L0.150556 7.72838C0.146086 7.73281 0.141277 7.73688 0.136179 7.74058C0.129336 7.74532 0.123182 7.75142 0.115655 7.75616L0.0971765 7.76972L0.0800685 7.78259L0.056119 7.79886L0.0437975 7.80699L0.0130064 7.82597L0.00684989 7.83004C0.00434316 7.83098 0.00201923 7.83235 0 7.8341L11.3125 1.29168L12.4827 0.616696Z" fill="#98BCDD"/>
</svg>
