<svg width="41" height="17" viewBox="0 0 41 17" fill="none" xmlns="http://www.w3.org/2000/svg">
<path d="M10.2552 16.0432C10.3335 16.0545 10.4127 16.0592 10.4918 16.0573C10.9495 16.0445 11.301 15.8196 11.265 15.5186L22.7769 13.7475C22.7936 13.7718 22.8128 13.7943 22.834 13.8148L23.9724 13.1657C23.9278 13.1508 23.8824 13.1384 23.8364 13.1286L26.8964 6.48934L27.0664 6.49405C27.5248 6.48126 27.8756 6.25701 27.8505 5.99437L27.8355 5.93848L39.4964 4.14381C39.5203 4.18521 39.5509 4.2225 39.5868 4.25425L40.7333 3.60035C40.5763 3.54536 40.4101 3.52045 40.2437 3.52695C39.7854 3.53974 39.4345 3.76467 39.4746 4.08185L27.8124 5.87652C27.7631 5.7952 27.6926 5.72846 27.6084 5.68325C27.4365 5.59628 27.2471 5.54876 27.0542 5.54421C26.8612 5.53966 26.6697 5.57821 26.4939 5.65699L17.9842 0.789483C18.1202 0.699918 18.1943 0.583416 18.1828 0.452771C18.1712 0.322127 18.0794 0.22044 17.9386 0.140303C17.7448 0.0383921 17.5267 -0.00955257 17.3076 0.00157687C16.8493 0.0143719 16.499 0.237948 16.5426 0.571293L5.01908 2.34711C4.97023 2.26541 4.89966 2.19855 4.81508 2.15384C4.62298 2.05259 4.40682 2.00466 4.18947 2.01511C3.73114 2.02858 3.37957 2.25216 3.40541 2.51547C3.41697 2.63736 3.50742 2.74645 3.6475 2.82592C3.7359 2.87482 3.83093 2.91088 3.9297 2.93299L0.784644 9.56015C0.326996 9.57362 -0.0238876 9.79787 0.00127285 10.0605C0.012153 10.1831 0.103952 10.2922 0.244714 10.373C0.438027 10.4749 0.65569 10.5229 0.874406 10.5117C1.0025 10.5085 1.12933 10.4857 1.25045 10.4444L9.76285 15.3119C9.71627 15.3448 9.6787 15.3887 9.65353 15.4396C9.62836 15.4905 9.61639 15.5468 9.61868 15.6035C9.63024 15.7253 9.72137 15.8338 9.86145 15.9139C9.95044 15.9636 10.0465 15.9997 10.1464 16.021L9.68532 16.9745L9.81317 17.0001L10.2552 16.0432ZM9.83017 15.2614L1.34702 10.4087C1.55102 10.3157 1.6741 10.1716 1.65914 10.012C1.64758 9.89013 1.55714 9.78171 1.41706 9.70157C1.28387 9.62863 1.13727 9.58284 0.985929 9.56689L4.03919 2.94915C4.11846 2.96031 4.19849 2.96526 4.27855 2.96397C4.73688 2.9505 5.08708 2.72692 5.06328 2.46361L5.04832 2.40839L16.5766 0.634595C16.627 0.710468 16.6957 0.772721 16.7765 0.815746C16.9684 0.916732 17.1844 0.964435 17.4014 0.953799C17.5765 0.950918 17.7488 0.909755 17.906 0.833255L26.4116 5.69605C26.2695 5.78696 26.1879 5.90818 26.2001 6.04017C26.2123 6.16206 26.3028 6.27048 26.4422 6.34994C26.551 6.40993 26.6695 6.45072 26.7924 6.47048L23.7323 13.1071C23.4705 13.0694 23.2034 13.1142 22.9687 13.235C22.7599 13.3549 22.6872 13.5232 22.7484 13.6775L11.2439 15.4465C11.1939 15.3605 11.12 15.2903 11.0311 15.2445C10.838 15.1432 10.621 15.0953 10.4027 15.1058C10.2018 15.1067 10.0047 15.1604 9.83153 15.2614H9.83017Z" fill="#B3DFEF"/>
</svg>
