<svg width="6" height="3" viewBox="0 0 6 3" fill="none" xmlns="http://www.w3.org/2000/svg">
<path d="M1.17568 2.077C0.612742 1.75537 0.331268 1.33225 0.332711 0.91056L0.346428 0.353786C0.346446 0.276466 0.355898 0.199435 0.374576 0.124362C0.374576 0.106493 0.374576 0.088626 0.374576 0.0714726V0L0.363026 0.0121535L0.330553 0.0450281L0.295912 0.0850569L0.269199 0.117216L0.235281 0.161529L0.214357 0.190119L0.182597 0.238L0.165276 0.264445L0.137128 0.315912L0.12342 0.339495L0.0981526 0.393099L0.0873339 0.415966L0.0671237 0.470286L0.0591858 0.493162L0.0425877 0.548913L0.0360859 0.57035L0.0245448 0.627531L0.0202102 0.648968L0.0129948 0.705434V0.726879V0.782621V0.799782L0 1.34297V1.35655C0.000110672 1.44251 0.0117588 1.52808 0.0346411 1.61099C0.0995447 1.83451 0.224224 2.03651 0.3955 2.19563C0.452987 2.25011 0.513463 2.30142 0.576652 2.3493C0.627894 2.3879 0.681301 2.42506 0.739039 2.46223L0.841526 2.5237C1.13792 2.68781 1.45691 2.8082 1.78842 2.88106C1.87503 2.90108 1.96163 2.91823 2.0504 2.93324C2.22905 2.96339 2.40929 2.98343 2.59025 2.99327C2.68191 2.99827 2.77285 3.00042 2.8645 3.00042C3.5956 3.00042 4.32526 2.84104 4.88532 2.52084C4.98366 2.46446 5.07795 2.40141 5.16751 2.33215C5.24733 2.26987 5.32191 2.20127 5.39052 2.12702C5.48409 2.02667 5.56149 1.91264 5.62002 1.78896C5.49876 1.89847 5.36564 1.99435 5.22307 2.07485C4.10441 2.71739 2.29579 2.71739 1.17568 2.077Z" fill="#63B4FF"/>
</svg>
