<svg width="13" height="8" viewBox="0 0 13 8" fill="none" xmlns="http://www.w3.org/2000/svg">
<path d="M0.0856745 3.75182C0.0856745 3.76492 0.0856745 3.77734 0.0856745 3.79044V3.79733C0.0856745 3.81112 0.0856745 3.82491 0.0856745 3.83802V3.84146C0.0860438 3.84536 0.0860438 3.84928 0.0856745 3.85318V3.88283C0.0856745 3.91179 0.0898512 3.94076 0.0933326 3.96972L0.0975102 4.01178C0.0978359 4.01314 0.0978359 4.01455 0.0975102 4.01591C0.0975102 4.02902 0.101689 4.04281 0.103082 4.0566C0.103082 4.0566 0.103082 4.0566 0.103082 4.06074C0.104489 4.07416 0.106578 4.08751 0.109346 4.10073C0.109346 4.10073 0.109346 4.10073 0.109346 4.10487C0.109346 4.11935 0.114223 4.13314 0.117008 4.14693C0.117008 4.1621 0.123271 4.17658 0.126056 4.19106C0.126056 4.20485 0.132324 4.21864 0.135805 4.23243C0.135479 4.23449 0.135479 4.23658 0.135805 4.23864C0.135805 4.25174 0.142073 4.26553 0.145554 4.27863C0.149732 4.2938 0.153212 4.30828 0.15739 4.32207C0.161568 4.33655 0.165049 4.35035 0.169923 4.36483C0.1741 4.37931 0.178278 4.39379 0.183152 4.40758C0.183152 4.40758 0.183152 4.40758 0.183152 4.41172C0.18733 4.42551 0.191508 4.4386 0.196382 4.4524C0.201256 4.46619 0.206132 4.48067 0.211703 4.49446C0.216577 4.50825 0.222146 4.52204 0.227716 4.53583V4.54204C0.23259 4.55445 0.237466 4.56686 0.243036 4.57927V4.58548L0.259747 4.62478C0.266013 4.63788 0.271584 4.65167 0.277851 4.66478C0.277589 4.66684 0.277589 4.66892 0.277851 4.67098C0.283421 4.68408 0.289688 4.6965 0.295258 4.7096C0.301525 4.7227 0.308486 4.73649 0.315449 4.74959L0.336337 4.79096L0.357224 4.83164L0.379506 4.87164V4.87647L0.401788 4.91439V4.91922C0.417803 4.94611 0.434515 4.973 0.451226 4.99989C0.451439 5.00172 0.451439 5.00358 0.451226 5.00541C0.459581 5.01782 0.46724 5.03023 0.476291 5.04264V5.04678L0.502054 5.08539L0.52921 5.12401L0.557059 5.16331L0.563327 5.1709C0.570886 5.18233 0.579018 5.19338 0.587696 5.204L0.595358 5.21434L0.621121 5.24744L0.625298 5.25295C0.633654 5.26261 0.642007 5.27295 0.649667 5.28329L0.653844 5.28812L0.66081 5.29639C0.669165 5.30743 0.678217 5.31777 0.687269 5.32881L0.697014 5.33984C0.705369 5.35087 0.715118 5.36121 0.72417 5.37156L0.756898 5.40879L0.763162 5.41569C0.771517 5.42534 0.780569 5.43499 0.789621 5.44396C0.791075 5.44615 0.792706 5.44823 0.794496 5.45017L0.830007 5.48809L0.867605 5.5267L0.874566 5.53429L0.907294 5.56738L0.912169 5.57221L0.944892 5.60462H0.948377L0.953247 5.60945L0.989456 5.64393L0.998508 5.6522L1.03123 5.68254L1.04795 5.69771L1.07441 5.72115L1.09599 5.74046L1.11827 5.75977L1.13707 5.77632L1.16562 5.80045L1.17049 5.80459L1.21157 5.83838L1.22689 5.85079L1.25753 5.87561L1.27842 5.89216L1.30627 5.91423L1.32367 5.92802L1.35501 5.95146L1.3752 5.96663L1.40583 5.98939L1.41906 5.99904C1.4316 6.00869 1.44344 6.01766 1.45667 6.02662L1.47268 6.03834L1.50819 6.06317L1.52003 6.07144L1.57016 6.10592L1.61542 6.13626L1.65093 6.1597L1.66834 6.17142L1.70594 6.19487C1.71187 6.19948 1.71816 6.20363 1.72474 6.20728L1.74493 6.22038L1.83893 6.27831C1.87792 6.30106 1.91691 6.32451 1.9573 6.34726C4.50363 7.80288 8.61939 7.80288 11.1483 6.34726C11.2061 6.31416 11.2611 6.2783 11.3161 6.24659H11.3217C11.9762 5.83976 12.4434 5.37018 12.7233 4.87233L12.7463 4.83095C12.7539 4.81647 12.7609 4.80199 12.7686 4.78889C12.7762 4.7751 12.7825 4.762 12.7895 4.74821L12.809 4.70684C12.8152 4.69374 12.8215 4.68063 12.8271 4.66753C12.8268 4.66593 12.8268 4.66431 12.8271 4.66271C12.8326 4.64891 12.8389 4.63513 12.8445 4.62202C12.8493 4.60892 12.8549 4.59582 12.8605 4.58272V4.5772C12.8654 4.5641 12.8702 4.551 12.8758 4.5379V4.53445L12.8904 4.49446C12.8904 4.49446 12.8904 4.49446 12.8904 4.49032C12.8953 4.47791 12.8995 4.4655 12.9036 4.45309C12.9035 4.45056 12.9035 4.44803 12.9036 4.4455C12.9078 4.43378 12.9113 4.42137 12.9148 4.40964C12.9151 4.40689 12.9151 4.40412 12.9148 4.40137L12.9273 4.36138C12.9315 4.3469 12.935 4.33311 12.9392 4.31932L12.9496 4.28001C12.9496 4.28001 12.9496 4.28001 12.9496 4.27449L12.958 4.23795C12.958 4.23795 12.958 4.23243 12.958 4.22968C12.958 4.22692 12.9628 4.20485 12.9656 4.19175C12.9656 4.19175 12.9656 4.1883 12.9656 4.18623L12.974 4.14624V4.14279C12.974 4.12969 12.9789 4.11659 12.9809 4.10418V4.09728C12.9809 4.08487 12.9844 4.07246 12.9865 4.06005C12.9886 4.04763 12.9865 4.05522 12.9865 4.05246C12.9865 4.0497 12.9865 4.02833 12.9921 4.01591C12.9917 4.0134 12.9917 4.01085 12.9921 4.00833L12.9963 3.97041C12.9963 3.97041 12.9963 3.96627 12.9963 3.96489C12.9963 3.9511 12.9963 3.938 12.9997 3.9249C13.0001 3.92354 13.0001 3.92212 12.9997 3.92076C12.9997 3.91318 12.9997 3.9049 12.9997 3.89732C13.0001 3.89088 13.0001 3.88444 12.9997 3.87801C12.9997 3.86422 12.9997 3.84974 12.9997 3.83595V3.83181C12.9997 3.81871 12.9997 3.8063 12.9997 3.79319V3.7863C12.9997 3.7732 12.9997 3.7601 12.9997 3.747C12.9944 3.26012 12.8408 2.78618 12.559 2.38722C12.2394 1.91557 11.7471 1.4722 11.0815 1.09157C10.3472 0.684765 9.55344 0.393735 8.72871 0.22895L8.5978 0.202749C6.32024 -0.246143 3.69871 0.0503597 1.88906 1.09226C0.624599 1.81972 -0.00484593 2.77336 2.80884e-05 3.727L0.0856745 3.75182Z" fill="#E4EEFA"/>
</svg>
