<svg width="33" height="12" viewBox="0 0 33 12" fill="none" xmlns="http://www.w3.org/2000/svg">
<path d="M32.368 3.22034C32.6685 3.12298 32.861 2.81306 32.8582 2.34269C32.8534 1.53565 32.2773 0.559937 31.5718 0.166362C31.1709 -0.0585379 30.8102 -0.0475645 30.5817 0.151966L30.5457 0.184877L25.2413 3.25394L25.0946 3.33896L20.7153 5.87594C20.5242 5.98565 20.3296 6.0917 20.1316 6.1941C19.344 6.5985 18.5262 6.94235 17.6854 7.2226L17.4978 7.28431C12.7979 8.80719 6.93415 8.76262 2.28483 7.14718C2.28483 7.15404 2.28898 7.16157 2.29175 7.16912C2.04388 6.96959 1.66861 6.97028 1.2601 7.21849C0.542107 7.65184 -0.0221784 8.67485 0.000670096 9.50314C0.0159024 10.077 0.308777 10.4069 0.725589 10.4117H0.776824C6.63851 12.6099 14.3786 12.5263 20.0721 10.1621L20.3414 10.0476C20.742 9.87432 21.1316 9.68919 21.5101 9.49217C21.7178 9.38315 21.9255 9.2707 22.127 9.15414L22.2579 9.07872L22.5508 8.90935L23.1109 8.58572L23.4045 8.41567L26.8664 6.41214L27.1627 6.24141L30.8822 4.08978L32.3742 3.22651L32.368 3.22034Z" fill="#ADDCEA"/>
</svg>
