<svg width="5" height="5" viewBox="0 0 5 5" fill="none" xmlns="http://www.w3.org/2000/svg">
<path d="M4.86846 0L4.39448 1.02829L3.37394 3.24019C3.29423 3.22752 3.21359 3.22139 3.13285 3.22188C2.67121 3.23612 2.31779 3.46131 2.34244 3.72584L2.35751 3.78146L0.351359 4.09076L0.0773886 4.13282C0.0527313 4.16063 0.0267121 4.18776 0 4.21353L0.342463 4.16063L2.38354 3.84658C2.43365 3.92834 2.50449 3.99568 2.58902 4.04193C2.78316 4.14249 3.00107 4.18935 3.21984 4.17759C3.68079 4.16402 4.0349 3.93883 4.00956 3.67429C3.99791 3.55152 3.90681 3.44232 3.76572 3.3616C3.67696 3.31177 3.58115 3.27541 3.48148 3.25375L4.50887 1.08865L4.99996 0.0535834C4.95886 0.0406959 4.91366 0.0217053 4.86846 0Z" fill="#B3DFEF"/>
</svg>
