<svg width="17" height="10" viewBox="0 0 17 10" fill="none" xmlns="http://www.w3.org/2000/svg">
<path d="M6.62092 9.61979C6.67918 9.65156 6.72714 9.69905 6.75921 9.75675L14.333 8.59262C14.2922 8.49059 14.3399 8.38034 14.4768 8.30159C14.6316 8.22198 14.8076 8.1923 14.9802 8.21668L17 3.84504C16.9193 3.83177 16.8414 3.80491 16.7698 3.76561C16.7284 3.7467 16.6922 3.71813 16.6644 3.68235C16.6366 3.64657 16.6179 3.60465 16.61 3.56017C16.6094 3.51337 16.622 3.46733 16.6465 3.42728C16.6709 3.38722 16.7062 3.35473 16.7483 3.33351L11.1473 0.130793C11.0308 0.18531 10.9032 0.21261 10.7743 0.210592C10.6454 0.208573 10.5187 0.17729 10.404 0.119151C10.3509 0.0905581 10.3056 0.0496801 10.2719 0L2.6781 1.16755L2.68847 1.20384C2.70438 1.37709 2.47342 1.52432 2.17194 1.53391C2.11896 1.53472 2.06601 1.53128 2.01359 1.52364L0 5.88226C0.0994866 5.89188 0.195952 5.92147 0.283507 5.96923C0.324874 5.98829 0.361026 6.01689 0.388937 6.05263C0.416849 6.08837 0.435705 6.13022 0.44393 6.17466C0.452919 6.28012 0.370633 6.3753 0.236486 6.43625L5.8271 9.6328C5.94101 9.566 6.07088 9.53054 6.20326 9.53008C6.34814 9.52172 6.49256 9.55274 6.62092 9.61979Z" fill="#9FD1FF"/>
</svg>
