<svg width="22" height="13" viewBox="0 0 22 13" fill="none" xmlns="http://www.w3.org/2000/svg">
<path d="M18.8991 12.5988L22 5.88035C21.8673 5.86198 21.739 5.81966 21.6217 5.75549C21.4812 5.67473 21.3901 5.56615 21.3784 5.44399C21.3647 5.30148 21.4627 5.17254 21.6238 5.07889L13.0668 0.186624C12.8854 0.310393 12.6703 0.376663 12.45 0.376644C12.2303 0.387822 12.0116 0.339492 11.8175 0.236846C11.7169 0.185717 11.6369 0.102179 11.5907 0L0.00411565 1.78209L0.0363214 1.88728C0.0411564 1.9457 0.0285232 2.00423 0 2.05558L18.4455 12.6076C18.596 12.5795 18.7503 12.5765 18.9019 12.5988H18.8991Z" fill="#9FD1FF"/>
</svg>
