<svg width="4" height="5" viewBox="0 0 4 5" fill="none" xmlns="http://www.w3.org/2000/svg">
<path d="M2.80675 0.0936155C2.80675 0.165625 2.79802 0.243394 2.78857 0.318284C2.63805 1.523 1.82584 2.72627 1.02453 3.60551L0.924916 3.7128L0.832569 3.81073L0.727137 3.9173C0.495908 4.15061 0.253044 4.37096 0 4.58122L0.477725 4.50922C0.630424 4.4084 0.780218 4.30471 0.9271 4.19814C1.42158 3.84264 1.88628 3.44819 2.31666 3.01863L2.42209 2.91278L2.51444 2.81412L2.61478 2.70683C3.1325 2.13796 3.65459 1.43443 3.99998 0.681934L2.80748 0C2.8082 0.0331242 2.80747 0.0648118 2.80675 0.0936155Z" fill="#63B4FF"/>
</svg>
